<?xml version="1.0" encoding="utf-8"?>
<svg version="1.1" id="Laag_1" xmlns="http://www.w3.org/2000/svg" xmlns:xlink="http://www.w3.org/1999/xlink" x="0px" y="0px"
	 viewBox="0 0 300 300" enable-background="new 0 0 300 300" xml:space="preserve">
<path id="Facebook" fill="#010202" d="M258.7,246.3c0,6.5-5.3,11.8-11.8,11.8h-55.5v-83.9h28.4l4.1-32.5h-32.5v-20.7
	c0-9.5,2.4-16,16-16h17.1V75.6c-3-0.6-13-1.2-25.4-1.2c-24.8,0-41.9,15.4-41.9,43.1v24.2h-28.4v32.5h28.4v83.9h-104
	c-6.5,0-11.8-5.3-11.8-11.8V53.7c0-6.5,5.3-11.8,11.8-11.8h193.2c6.5,0,11.8,5.3,11.8,11.8v192.6H258.7z"/>
</svg>
