<?xml version="1.0" encoding="utf-8"?>
<svg version="1.1" id="Laag_1" xmlns="http://www.w3.org/2000/svg" xmlns:xlink="http://www.w3.org/1999/xlink" x="0px" y="0px"
	 viewBox="0 0 300 300" enable-background="new 0 0 300 300" xml:space="preserve">
		<path fill="#010202" d="M219.8,39.6c0,0-108.4,0-125.8,0c-17.4,0-22.5,13.1-22.5,21.3c0,8.2,0,199.9,0,199.9
			c0,9.3,5,12.7,7.8,13.8c2.8,1.1,10.5,2.1,15.1-3.2c0,0,59.4-68.9,60.4-69.9c1.5-1.5,1.5-1.5,3.1-1.5c3.1,0,26,0,38.4,0
			c16.1,0,18.7-11.5,20.4-18.3c1.4-5.7,17.2-86.3,22.4-111.9C243.2,50.1,238.2,39.6,219.8,39.6z M216.8,181.6
			c1.4-5.7,17.2-86.3,22.4-111.9 M212.3,73.6l-5.3,27.5c-0.6,3-4.4,6.1-7.8,6.1c-3.5,0-49,0-49,0c-5.5,0-9.5,3.8-9.5,9.3v6
			c0,5.5,4,9.4,9.5,9.4c0,0,37.7,0,41.6,0c3.9,0,7.7,4.3,6.9,8.4c-0.8,4.2-4.8,24.8-5.3,27.1c-0.5,2.3-3.1,6.2-7.7,6.2
			c-3.9,0-33.9,0-33.9,0c-6.2,0-8,0.8-12.2,5.9c-4.1,5.1-41.3,49.8-41.3,49.8c-0.4,0.4-0.7,0.3-0.7-0.2v-156c0-3.5,3.1-7.6,7.6-7.6
			c0,0,97,0,100.9,0C209.8,65.6,213.3,69.1,212.3,73.6z"/>
</svg>
