<?xml version="1.0" encoding="utf-8"?>
<svg version="1.1" id="Laag_1" xmlns="http://www.w3.org/2000/svg" xmlns:xlink="http://www.w3.org/1999/xlink" x="0px" y="0px"
	 viewBox="0 0 300 300" enable-background="new 0 0 300 300" xml:space="preserve">
	<path fill="#010202" d="M103.7,133.1V165c0,0,30.6,0,43.2,0c-6.9,20.6-17.5,31.9-43.2,31.9c-26.3,0-46.9-21.3-46.9-47.5
		s20.6-47.5,46.9-47.5c13.8,0,23.1,5,31.3,11.9c6.9-6.9,6.3-7.5,22.5-23.1c-14.4-13.1-33.1-20.6-53.8-20.6
		c-44.4,0-80.1,35.7-80.1,80.1s35.7,80.1,80.1,80.1c66.3,0,82.6-57.5,76.9-96.3h-76.9V133.1z"/>
	<polygon fill="#010202" points="248.2,135 248.2,106.8 228.8,106.8 228.8,135 200,135 200,154.4 228.8,154.4 228.8,183.1 
		248.2,183.1 248.2,154.4 276.3,154.4 276.3,135 	"/>
</svg>
