<?xml version="1.0" encoding="utf-8"?>
<!-- Generator: Adobe Illustrator 27.0.0, SVG Export Plug-In . SVG Version: 6.00 Build 0)  -->
<svg version="1.1" id="Laag_1" xmlns="http://www.w3.org/2000/svg" xmlns:xlink="http://www.w3.org/1999/xlink" x="0px" y="0px"
	 viewBox="0 0 300 300" style="enable-background:new 0 0 300 300;" xml:space="preserve">
<g id="Layer_1-2">
	<path d="M150,94.6c-30.7,0-55.4,24.7-55.4,55.4s24.7,55.4,55.4,55.4s55.4-24.7,55.4-55.4S180.7,94.6,150,94.6L150,94.6z M150,186
		c-19.8,0-36-16.2-36-36s16.2-36,36-36s36,16.2,36,36S169.9,186,150,186L150,186L150,186z M220.7,92.3c0,7.2-5.8,12.9-12.9,12.9
		s-12.9-5.8-12.9-12.9s5.8-12.9,12.9-12.9S220.7,85.2,220.7,92.3z M257.4,105.4c-0.8-17.3-4.8-32.7-17.5-45.3
		c-12.6-12.6-28-16.6-45.3-17.5c-17.8-1-71.3-1-89.2,0C88.1,43.4,72.8,47.4,60.1,60s-16.6,28-17.5,45.3c-1,17.8-1,71.4,0,89.2
		c0.8,17.3,4.8,32.7,17.5,45.3s28,16.6,45.3,17.5c17.8,1,71.4,1,89.2,0c17.3-0.8,32.7-4.8,45.3-17.5c12.6-12.6,16.6-28,17.5-45.3
		C258.4,176.7,258.4,123.3,257.4,105.4L257.4,105.4L257.4,105.4z M234.3,213.7c-3.8,9.5-11,16.7-20.6,20.6
		c-14.2,5.6-48,4.3-63.7,4.3s-49.5,1.3-63.7-4.3c-9.5-3.8-16.7-11-20.6-20.6c-5.6-14.2-4.3-48-4.3-63.7s-1.3-49.5,4.3-63.7
		c3.8-9.5,11-16.7,20.6-20.6c14.2-5.6,48-4.3,63.7-4.3s49.5-1.3,63.7,4.3c9.5,3.8,16.7,11,20.6,20.6c5.6,14.2,4.3,48,4.3,63.7
		S239.9,199.5,234.3,213.7z"/>
</g>
</svg>
