<?xml version="1.0" encoding="utf-8"?>
<svg version="1.1" id="Laag_1" xmlns="http://www.w3.org/2000/svg" xmlns:xlink="http://www.w3.org/1999/xlink" x="0px" y="0px"
	 viewBox="0 0 300 300" enable-background="new 0 0 300 300" xml:space="preserve">
	<rect x="47.6" y="114.6" fill="#010202" width="42.1" height="133.5"/>
	<path fill="#010202" d="M204.4,113.4c-24,0-39.2,12.9-42.1,22.2v-21.1h-47.4c0.6,11.1,0,133.5,0,133.5h47.4v-72
		c0-4.1,0-8.2,1.2-11.1c3.5-8.2,10-16.4,22.8-16.4c16.4,0,24,12.3,24,30.4v69.1h48v-74.3C257.7,132.7,234.3,113.4,204.4,113.4z"/>
	<path fill="#010202" d="M67.5,51.9c-15.8,0-25.8,10-25.8,23.4c0,12.9,10,22.8,25.2,22.8h0.6c15.8,0,25.8-10,25.8-23.4
		C92.6,61.9,83.3,51.9,67.5,51.9z"/>
</svg>
