<?xml version="1.0" encoding="utf-8"?>
<svg version="1.1" id="Laag_1" xmlns="http://www.w3.org/2000/svg" xmlns:xlink="http://www.w3.org/1999/xlink" x="0px" y="0px"
	 viewBox="0 0 300 300" enable-background="new 0 0 300 300" xml:space="preserve">
	<path fill="#020203" d="M235.6,38.8h-177c-12.6,0-22.7,10.2-22.7,22.7v177c0,12.6,10.2,22.7,22.7,22.7h177
		c12.6,0,22.8-10.2,22.8-22.7v-177C258.4,48.9,248.2,38.8,235.6,38.8z M184.3,62.6c16.4,0,29.6,13.3,29.6,29.6s-13.3,29.6-29.6,29.6
		c-16.4,0-29.6-13.3-29.6-29.6S168,62.6,184.3,62.6z M129.7,76c11.4,0,20.6,9.3,20.6,20.6s-9.2,20.6-20.6,20.6S109,108,109,96.6
		S118.3,76,129.7,76z M90.4,79.3c8.1,0,14.6,6.5,14.6,14.6c0,8-6.6,14.6-14.6,14.6s-14.6-6.5-14.6-14.6
		C75.8,85.8,82.3,79.3,90.4,79.3z M222.8,161.4C222.8,161.5,222.8,161.5,222.8,161.4c0,0.1,0,0.1,0,0.2v75.8h-76.6v-39.6h-43.1
		v-32.3H71.5v-36.2c0-0.4-0.1-0.9-0.1-1.3c0-8.6,8.5-15.5,18.9-15.5c10.4,0,18.9,6.9,18.9,15.5v0v0v0v2.6c4.9-4.8,12.2-7.8,20.4-7.8
		c12.9,0,23.7,7.5,26.2,17.5c7-6.4,17.2-10.5,28.5-10.5C205.6,130,222.7,144,222.8,161.4z"/>
</svg>
