<?xml version="1.0" encoding="utf-8"?>
<!-- Generator: Adobe Illustrator 18.1.1, SVG Export Plug-In . SVG Version: 6.00 Build 0)  -->
<svg version="1.1" id="Laag_1" xmlns="http://www.w3.org/2000/svg" xmlns:xlink="http://www.w3.org/1999/xlink" x="0px" y="0px"
	 viewBox="0 0 300 300" enable-background="new 0 0 300 300" xml:space="preserve">
<path id="pinterest-pinterest" fill="#010202" d="M242.2,114.8c0,53.7-29.8,93.8-73.8,93.8c-14.8,0-28.7-8-33.4-17.1
	c0,0-7.9,31.5-9.6,37.6c-5.9,21.5-23.3,43-24.7,44.8c-0.9,1.2-3,0.8-3.3-0.8c-0.4-2.7-4.8-29.9,0.4-52c2.6-11.1,17.6-74.6,17.6-74.6
	s-4.4-8.7-4.4-21.7c0-20.3,11.8-35.4,26.4-35.4c12.4,0,18.5,9.3,18.5,20.5c0,12.5-8,31.2-12.1,48.6c-3.4,14.5,7.3,26.4,21.6,26.4
	c25.9,0,43.4-33.3,43.4-72.8c0-30-20.2-52.4-56.9-52.4c-41.5,0-67.4,31-67.4,65.5c0,11.9,3.5,20.3,9,26.8c2.5,3,2.9,4.2,2,7.6
	c-0.7,2.5-2.2,8.6-2.8,11c-0.9,3.5-3.7,4.7-6.8,3.4c-19.1-7.8-28-28.8-28-52.3c0-38.9,32.8-85.5,97.8-85.5
	C207.9,36.4,242.2,74.2,242.2,114.8z"/>
</svg>
