<?xml version="1.0" encoding="utf-8"?>
<svg version="1.1"  xmlns="http://www.w3.org/2000/svg" xmlns:xlink="http://www.w3.org/1999/xlink" x="0px" y="0px"
	 viewBox="0 0 300 300" enable-background="new 0 0 300 300" xml:space="preserve">
<path fill="#010202" d="M93.3,207.1H82v-91.4c3.5-2.6,7.2-4.9,11.3-6.4V207.1z M127.3,207.1h11.3V102.6c-2.6,3-5,6.2-7,9.7l-4.3-2.1
	V207.1z M104.7,207.1H116V106.8c-5.8-0.9-7.1-0.6-11.3-0.1V207.1z M59.3,207.1h11.3v-79.6c-3.5,5.2-6.3,11-7.8,17.4l-3.5-2.1V207.1z
	 M25.3,147.6C18.5,153.8,14,163,14,173.3s4.5,19.5,11.3,25.7V147.6z M239.3,140c-2.3-32.2-27.2-57.6-58-57.6
	c-11.6,0-22.3,3.7-31.3,9.9v114.7h103c18.2,0,33-15.8,33-35.2C286,146.6,261.4,129.2,239.3,140z M48,139.7c-3.4-0.3-6-0.3-11.3,1.4
	v64.5c5.1,1.6,7.2,1.6,11.3,1.6V139.7z"/>
</svg>
