<?xml version="1.0" encoding="utf-8"?>
<svg version="1.1" id="Laag_1" xmlns="http://www.w3.org/2000/svg" xmlns:xlink="http://www.w3.org/1999/xlink" x="0px" y="0px"
	 viewBox="-1333 1333.7 168 168" enable-background="new -1333 1333.7 168 168" xml:space="preserve">
<path d="M-1249,1333.9c-46.2,0-83.7,37.5-83.7,83.7c0,46.3,37.5,83.7,83.7,83.7c46.3,0,83.7-37.5,83.7-83.7
	C-1165.3,1371.4-1202.8,1333.9-1249,1333.9C-1249,1333.9-1249,1333.9-1249,1333.9z M-1210.6,1454.7c-1.5,2.5-4.7,3.2-7.2,1.7
	c-19.7-12-44.4-14.7-73.6-8.1c-2.8,0.6-5.6-1.1-6.2-3.9c-0.6-2.8,1.1-5.6,3.9-6.2c31.9-7.3,59.3-4.2,81.3,9.3
	C-1209.9,1449-1209.1,1452.2-1210.6,1454.7z M-1200.3,1431.9c-1.9,3.1-5.9,4-9,2.2c-22.5-13.8-56.8-17.8-83.4-9.8
	c-3.5,1-7.1-0.9-8.1-4.3c-1-3.5,0.9-7.1,4.4-8.1c30.4-9.2,68.2-4.8,94.1,11.1C-1199.4,1424.8-1198.5,1428.8-1200.3,1431.9
	L-1200.3,1431.9z M-1199.5,1408.2c-27-16-71.5-17.5-97.3-9.7c-4.1,1.3-8.5-1.1-9.8-5.2c-1.3-4.1,1.1-8.5,5.2-9.8
	c29.6-9,78.8-7.2,109.8,11.2c3.7,2.2,4.9,7,2.7,10.7C-1190.9,1409.1-1195.8,1410.4-1199.5,1408.2L-1199.5,1408.2z"/>
</svg>
