<?xml version="1.0" encoding="utf-8"?>
<!-- Generator: Adobe Illustrator 18.1.1, SVG Export Plug-In . SVG Version: 6.00 Build 0)  -->
<svg version="1.1" id="Laag_1" xmlns="http://www.w3.org/2000/svg" xmlns:xlink="http://www.w3.org/1999/xlink" x="0px" y="0px"
	 viewBox="0 0 1000 1000" enable-background="new 0 0 1000 1000" xml:space="preserve">
<path d="M345.3,681.7c1.4,2.1-1.3,4.5,3.3,3.3C348.9,682.6,347.8,681.4,345.3,681.7 M429,693v4.7C433.7,700,433.7,690.7,429,693
	 M337.3,702.3c6.3,1,8.3-2.3,11.3-4.7C346.7,696.3,338.7,698.3,337.3,702.3 M789.7,701c0,2.3-4,1.3-3.3,4.7
	C789.7,707,793.7,701.7,789.7,701 M326.3,707.3c3.7-0.7,3.7,3,8,1.7C336.7,704,326,704.7,326.3,707.3 M546.7,690.3
	c0-2.9-5.6,7.5,4,5.7C551.5,685.9,547.8,690.8,546.7,690.3z M390.3,200.7C385.9,218.5,393.9,200.9,390.3,200.7 M440,192.7
	c0,5,3.3,6.3,5,9.7C448.7,205,442,194.3,440,192.7 M337.3,208.7c-0.7-2-1.7-3.7-3.3-4.7C334,206,336.7,212.7,337.3,208.7 M356.7,215
	C354.7,205.3,349,211,356.7,215 M243,276C233.3,271.3,238.7,280,243,276 M772,343.3C759.7,341.3,779,344.7,772,343.3 M169,381.7
	c0,0.3-2.3,1.3,0,1.7C171,383.7,172.7,375.7,169,381.7 M170.7,399.7c-2,0.3-4.7-6.7-6.3-1.7C166.3,397.7,170.3,403.3,170.7,399.7
	 M140.3,417C149.3,424,144.7,414.3,140.3,417 M164.3,430c-0.3,0,0,1.3,0,1.7C155.3,437.7,175.7,426,164.3,430 M193,500.3
	C203.7,502.3,196.3,493,193,500.3 M207.7,505.3C209,513.7,206,495,207.7,505.3 M259.7,545.3c-6.3,21.9,18.7-7,18.7-2.7
	c0.7,1.3-13.1-10.3-12.7-10.3C263.4,536.5,261.4,540.9,259.7,545.3C259.7,545.2,259.8,544.8,259.7,545.3z M279.7,529.3
	c-2.6-1-10.8,5.8-3.3,8.3C276.2,534.3,277.3,531.6,279.7,529.3 M868.3,545.3c0.4-2-0.1-3.7-1.7-5C859.4,546,866.6,545,868.3,545.3
	 M207.7,561.3c1.7-4-7.3-5.3-6.3-3.3C204.3,558.3,203.3,562.7,207.7,561.3 M117.7,571C130.3,581.7,122,565.3,117.7,571 M616.3,585.7
	C619.6,587.6,627,590.7,616.3,585.7 M863.3,593.7c2.3,1,4,2.3,6.3,3.3C871.3,592.7,862.7,591.3,863.3,593.7 M198,622.3
	c-2.1,2.4-2.6,5.1-1.7,8C196.5,629.8,202.9,625.1,198,622.3 M834.7,665.7C836.7,673.7,842,668,834.7,665.7 M873.3,558.3
	c3.2-0.9,5.4-2.6,6.7-5.3C876.6,546.1,868.4,560.8,873.3,558.3 M849.3,436.7c-5-1.6-5.8,11.3,8.4-0.6
	C863.9,431,850.9,430.5,849.3,436.7 M230.7,536.3C257.3,536.3,212.4,540.7,230.7,536.3C237,536.3,230.2,536.4,230.7,536.3z
	 M875.7,534.3c6.4-1.2,8.5-3.5,6.3-6.7C878.8,526.1,873,535.7,875.7,534.3 M700.7,234C709.7,234,700.8,234,700.7,234 M805,368.7
	C806.3,372.7,806.3,372.7,805,368.7 M790,364c0-13-10.8,6.2-6.7,5.3c3.8-1.8,32.5,8,34,5C819.8,369.3,792.7,363.8,790,364
	 M861.3,658C856.1,648.1,870,664.5,861.3,658 M871,576c-1.2,0-4.8,1.7-1.7,1.7C869.7,577.2,873.3,573.7,871,576 M402,187.7
	c1.5-5.5,0.5-10.5-3-15C397.3,178.2,398.3,183.2,402,187.7 M118,577c-3.7-2.9-6.9-6.2-9.7-10c-1.1,2.2-2.6,4-4.7,5.3
	C103.7,569.8,118.2,576.7,118,577 M248.7,275.3c4.8-1.6,7.9-4.7,9.3-9.3C257.6,272.3,254.5,275.4,248.7,275.3
	C258,273.4,250.5,273.1,248.7,275.3z M201,325.7c0.6-0.2,11.1,2.6,9.3-1C206,320.4,199.2,326.6,201,325.7 M148,614.7
	c9-4.3-7.3,1-7.3,1C142.6,616.6,147.4,614.7,148,614.7 M255,285C255,295.1,256,277.2,255,285 M204.3,405c0-1.4-5.7-3.2-6.3-2
	C196.9,404.1,204.3,407.7,204.3,405 M176.3,394.3c4.2,11.6,5.3,11.6,3.2-0.2C176.4,383.7,175.3,383.7,176.3,394.3 M209.7,351
	c-8.2,5.1-2,6,18.7,2.5c7-3-16.3-17.6-16.3-17.5c5.8,2.7,10.7,6.6,14.7,11.7C221,348.8,215.3,349.9,209.7,351 M219,328
	c0,5.3,10.3,8.3,10.3,9c6.3,2,12.8,3.5,19.3,4.3C250.1,337.1,223.1,329.5,219,328z M856.3,567c0.8,0,3.4-1,5-0.7
	C856.2,571.5,854.5,571.8,856.3,567 M855.3,579.3c-3.3,1.1-4.7,5.1-4.7,8.3C834.7,580.8,855.3,576,855.3,579.3 M841.7,580.7
	c-6.2,5.9-12.7,6.6-19.7,2C823.8,580.8,861.1,561.2,841.7,580.7 M834,608c-3,4.5-9.9,2.1-15.7-4.7C823.2,598.5,830.5,602.8,834,608
	 M841,620.7C852,628.2,827.5,628.5,841,620.7 M836.7,626C833.3,622.7,836.7,626.6,836.7,626 M834,628.7
	C833.7,628,832.6,625.6,834,628.7L834,628.7z M836,636.7c-4.8-2.2-9.6-4.4-14.3-6.7c2.1-0.5,3.1-1.9,3-4.3
	C831.5,626.3,835.2,629.9,836,636.7 M830.3,646c-3,0-3-1.1-3-3.3C832,642.7,832.8,647.2,830.3,646 M817,652.7
	C817,644.7,819.4,652.7,817,652.7 M813.7,633.7c0,0,18.2-0.8,9.7,7.7C815.6,638.2,813.5,632.4,813.7,633.7 M809,595
	c2,2,4.2,7.4,3.5,6.6C811,599.6,809.9,597.4,809,595 M816.3,601.7C808.6,599.1,823.8,601.7,816.3,601.7 M805.7,579
	c0,16.6-12.1,1-10.3,3.3c1.8,1.8-18.1,6.5-20,6c3-11.9,6.7-16-16-13c-6.3-6.3,38.3-2.3,34,2c-1.6-3.4-4-5.9-7.3-7.7
	c6,1,11.4,3.4,16.3,7c0.2-0.1-2.8-8-3-8.3c19.3,0.1,11.4,4.3,26.7,9.3C819.4,582.6,812.7,583,805.7,579 M803.3,652.7
	c-5.6,0-7.3-1.2-7.3-7.7C800,645,806.1,647.2,803.3,652.7 M791.3,635.3c-1,1.5,6.1-5.3,4.8-3C794.8,633.7,793.2,634.7,791.3,635.3
	 M784.7,633.7c-7.7,8.7-8.7-4.9-10.7-11C782.4,612.1,780.7,638,784.7,633.7 M772,656c3.9,0.8,6.2,1.4,6,5C774,661.6,772,660,772,656
	 M771.3,609.7c-0.1-0.1,5.9-6.5,12.3,6.3C760.3,633.9,775.9,609.7,771.3,609.7 M789.7,606.3H789C786,602,788.4,604.8,789.7,606.3z
	 M789.7,619.3C780.8,592.6,805.7,624.7,789.7,619.3 M773.7,592c7.1-0.6,13.9,0.6,20.4,3.5C786.7,597.5,779.9,596.3,773.7,592
	 M764,649.7C766,640.8,793,652,764,649.7 M767,600c-1.4-1.6-4.2,1.4-3-3.3C768.6,595.6,765.4,598.2,767,600z M762.3,587h-1.7
	C761.7,581.7,767.7,595.7,762.3,587 M760.7,625.7c-7.6-2-9.3-6.4-9.3-14.3C755.3,616.1,766.5,624.2,760.7,625.7 M751.7,627
	c0.9,0.1-3.6-11,4.7,0C753.1,634.8,755.8,626.6,751.7,627 M756,695.7c3.2,1.6-11.9,5.8-23.7-6C740.9,688.9,748.8,690.9,756,695.7
	 M732,697.7c-2.7-2.7-5.3-5.3-8-8C724.4,687.4,735.4,694.3,732,697.7 M716.3,630.3C710.3,621.3,719.1,631,716.3,630.3 M704,679
	C699,659.9,727.1,686.7,704,679 M697.7,688.3c-1.7-1.2-3.3-2.4-5-3.7C694.8,684.3,701.7,684.3,697.7,688.3 M696.7,694.3
	c-8.9,0-14.2-0.2-19-8.3C684.2,682.7,696.7,687.8,696.7,694.3 M675.7,682.7c0.8-4.8,1.6-9.6,2.3-14.3
	C680.2,662.5,675.7,687.8,675.7,682.7 M672.7,669.3c-1.1-2.2-6-2.9-5-6.7C671.9,663.1,674.1,666.5,672.7,669.3 M672.3,679.7
	C664.7,675.6,675,677.3,672.3,679.7 M665.3,687.3c-8.1,3.1-16.5-4.6-18.3-12C651.2,676.6,666.5,686.1,665.3,687.3 M642,651.3
	C617.7,647.9,669.4,642.3,642,651.3 M615,598.3c-3.5-5.9-7.3-11.7-11.3-17.3c10.8,9.5,0.2-1.3,7.7-5c2.9,1.4,13.6,16.1,14.3,13
	C624.2,594.3,620.6,597.4,615,598.3 M624.3,632c-1,0-2-2.3-1.7-3.3C625.3,623,626,631.7,624.3,632 M605.3,672
	C617.3,680.8,605.3,672.2,605.3,672 M597.3,662.3c0.5-0.4-3.5-4.5,4.3,0C600.3,664.2,598.8,664.2,597.3,662.3 M588,668.3
	C588.6,661.9,597.7,664.3,588,668.3 M579.7,669C581.8,667.5,595.6,666.4,579.7,669 M576.3,649.7c1.1,1,6.4-0.8,2.3,3.3
	C573.4,654,578.2,651.4,576.3,649.7z M570,617.7C576.1,618.1,576.7,621.7,570,617.7 M565,667.3c7.8,10.3,3,8.1-14.3-6.7
	C554.1,656.1,576.6,659.9,565,667.3 M567.7,676.7L567.7,676.7L567.7,676.7L567.7,676.7 M567.3,674.7
	C567.3,676.3,567.6,674.1,567.3,674.7 M542.7,593.7C537,577.7,560.7,581,542.7,593.7 M536.3,601.3c-13.8,3.2-2.9-11.6-5.7-8.3
	C539.5,590.4,540.8,592.4,536.3,601.3 M528.3,611C533.7,615.3,520,615,528.3,611 M525,601.3C520.1,607.9,523.2,590.8,525,601.3
	 M518.7,572.7c-17.3-2.9,5.5-10.5,0.7-15.3C521,562.6,520.8,567.7,518.7,572.7 M512.3,592c-1.1-2.1-2.2-4.2-3.3-6.3
	C514.5,585.6,515.6,587.8,512.3,592 M504.3,364.3c3.7-1,2.3,3,4.7,3.3C508.3,371.3,502.7,367.7,504.3,364.3 M504.3,505.3
	c-4.7-2,1-6.3,1.7-8C509.7,498.3,502.7,501.7,504.3,505.3 M502.7,398C503.7,395.7,504.7,398,502.7,398 M502.3,337
	c-0.1-1.9,0.3,7.8,0.3,8C498.4,342.5,498.3,339.8,502.3,337 M494.7,303.3c-0.5,0.3,3.1-4.5,3.3-4.7
	C501.2,301.8,490,313.1,494.7,303.3 M489.7,484.3c-13.6-2.1-0.7-20.6,2-22C497.7,478.6,493.7,474.1,489.7,484.3 M481.7,476.3
	c-0.3,1.1-4.7-8.7-0.3-9.7C482.3,469.6,481.6,474.7,481.7,476.3z M481.7,502c-0.7,3-2-1-1.7-3.3C480.7,496,482.3,500,481.7,502
	 M486.7,454C489.3,470.3,484.6,453.8,486.7,454 M486.7,194.3c4,0,4.2,8.4,0,6.7C486.7,198.8,486.7,196.6,486.7,194.3z M493.7,174.7
	C488,188.3,494.9,174.2,493.7,174.7 M496.7,176.3c4.6,3.8,11.7,2-1,5.7C495.7,182,497.4,177.8,496.7,176.3z M496.7,176.3
	L496.7,176.3L496.7,176.3L496.7,176.3z M503,185C500.9,200.5,495.5,176.5,503,185 M501.7,333.7c-2.2,0,3.8-5.2,4-2
	C505.8,334.1,502.3,333.1,501.7,333.7z M499.3,191c0.1,0.6,5.8,0.6,0.6,4.4C497.5,195.1,497.3,193.6,499.3,191 M506,255
	c-0.3,7.7-3.7-3.3-3.3-6.3C499.7,244.3,506,252.3,506,255 M498,282.3c-4.7-4.7,5.3,2.7,4.7-1.7C507,284.7,499.7,286.7,498,282.3
	 M494,299.7c-1.2-1.6-1.1-3.1,0.3-4.7C498.4,295,495.4,299,494,299.7 M493,433.3c4.5,5.2,1.7-10.7,1.7,4.7
	C491.7,437.2,491.1,435.6,493,433.3 M493,455.7c0,3.5-3.4-3.4-3.3-5C491.3,452,492.4,453.7,493,455.7 M489.7,226.3v-4.7
	C494.7,219,494.7,228.7,489.7,226.3 M510.7,450.7C524.5,454.1,500.6,462.1,510.7,450.7 M512.3,210.3
	C518,215,507.3,215.7,512.3,210.3 M512.3,197.3c5.7,0.7,1.3,3.3,1.7,8C510.3,205.7,513,199.7,512.3,197.3 M512.3,487.7V486
	C520,484.7,504.7,496.3,512.3,487.7 M512.3,569.3c-1-3.7-2.7-7.7,2-8C514.7,564,513.7,567,512.3,569.3 M521.7,228
	C525.6,243.4,513.6,225.5,521.7,228 M526.7,189.3c-2.1-3.3-4.1-4.3-5.3-8.3C524.2,177.5,526,180.3,526.7,189.3 M520,189
	C525,199.5,520,197.3,520,189 M530,353c2.3,1.3,3.3,4,3.3,8C530.7,359.7,529.7,357,530,353 M532,559c-7.6,2.5-1.8-5.5,0-8.7
	C535.2,553,535.2,555.9,532,559 M529.7,561.7c-18,0,26.7-1.8,2.3,3.1C528.4,565,527.6,563.9,529.7,561.7 M531.3,268
	c8.3,28.3-14.5-1.8-9.7-8C538.2,260,507,270.3,531.3,268C532.4,271.8,529.9,268.1,531.3,268z M538,212c-2-0.7-3.3-2-3.3-4.7
	C536.7,207.7,538,209,538,212 M541,510c-0.3,2-4,1.3-6.3,1.7C535,508,539,508,541,510 M544.3,236C548.3,234.3,537,248.3,544.3,236
	 M547.7,447.7C554.1,453.3,550,454.6,547.7,447.7 M549,401c2.3,0,3.3,2.5,3,4.3C547.4,405.8,546.4,404.3,549,401 M552.3,274.3
	c4.3,1.3-0.7,6.3-4.7,4.7C547.7,276.3,552.7,278,552.3,274.3 M558.3,247.3c0.3,5.7-1.7,10.5-6,14.3
	C545.9,258.2,559.4,246.8,558.3,247.3 M558.7,245.7C557.1,245.7,558.7,244.4,558.7,245.7 M563.7,242.3
	C562.5,240.8,558.5,255.4,563.7,242.3 M568.3,319.3C579.7,317.1,568.2,318.8,568.3,319.3 M570,226.3
	C578.2,229.2,571.4,240.5,570,226.3 M575,188.7C573.2,197.2,564.6,199.1,575,188.7 M594,197.3c-0.5,2.3-0.5,5.6-5.7,9.7
	C588.5,205,590.4,197.3,594,197.3 M597.3,218.3c2.7,0.1-5.2-8.6-3-14C599.8,208.3,600.8,213,597.3,218.3 M610,236
	c4.6,1.6,3.5,2.2-2.6,5.1C601.3,232.3,602.1,230.6,610,236 M606.7,188.3C617,191.8,602.9,190.2,606.7,188.3 M611,194.3
	C618.1,206.8,607.4,195.9,611,194.3 M618,226.3c-0.7,3-2-1-1.7-3.3C617,220,618.3,224,618,226.3 M640.3,228
	c-6.7,10-12.7-4.1-15.7-11C630.6,220.7,631.2,230.2,640.3,228 M648.7,218.3c-0.7-4.4,9.4,4.3-0.3,4.3
	C645.5,219.9,647.6,222.8,648.7,218.3 M654,232c5.1-1.9,5.3-1.3,0.7,1.7C650.9,233,650.6,232.5,654,232z M655,247
	c0.3-4,6.3-2.3,6.3-6.3C666,243.3,658.3,247.3,655,247 M671,258.3c-5.2,16-8.2-0.2-17.7,1.7C658.1,254,660.3,261,671,258.3 M674,236
	c-0.1,0.2,2.3,4.3-0.2,4.7C673.9,240.7,666.7,234.5,674,236 M680.7,250.3c6.5,0.4,12.9,1.1,19.3,2c-7.9,1.1-6.9,3.8,3,8
	c0.4-1.4,1.2-2.5,2.3-3.3c6,12-30.5,2.9-29.7,3c5.3,3.7,4.3,4.8-3,3.3C675.9,259.4,678.6,255,680.7,250.3 M694.3,245.7
	c0,0.6,3.2-0.4,2,3C681.5,251.6,695.6,245.7,694.3,245.7 M699,247.7c0-9.8,5.7-0.4,7,3C701,251.9,701.4,248.7,699,247.7z M717,261.7
	c0.9,0.6,6.9,2.1,4.7,4.3C721.9,266.3,713.2,261.7,717,261.7 M717.3,264.7c0-0.3-0.3-0.3-0.3-0.7
	C717.3,264.3,717.3,264.3,717.3,264.7 M716,266.3C718.4,263.1,717.6,266.3,716,266.3 M716.3,291c5.8-1.6,11.4-0.9,16.7,2
	C728.4,291.8,716.3,302.5,716.3,291 M716.3,285c-0.2,0.2,20.4-3.4,22.7-2C732,289.4,724.5,290,716.3,285
	C724.8,276.6,718.4,285.3,716.3,285z M744.7,303.3c-2.1,2.5-9.1,23.6-16,12.7C733.4,311,738.8,306.8,744.7,303.3 M746.3,299.7
	L746.3,299.7C746.3,299.7,746,299.7,746.3,299.7C743.2,304.1,746.3,300.7,746.3,299.7 M739.7,320c-1.5,1.1,1.8-3.7,6-3.7
	C743.7,317.6,741.7,318.8,739.7,320 M735,332c-1.9-3.5-0.8-5.6,3.3-6.3C738.7,327.9,737.2,329.8,735,332 M742.3,362.3
	c1.6,3.1-2.5,2.9-4.3,4.7C737.4,363.1,738.8,363.2,742.3,362.3 M746.3,377L746.3,377c26.4,0-16.6,6.4-20.7,2.3
	C729.5,379.3,744.4,377.4,746.3,377 M768.7,391.3c-1.5,9,8.3,5.7,16,5.7C705.1,421,765.7,394.3,768.7,391.3 M784.7,387
	C784.7,396.6,774.8,391.9,784.7,387 M797.3,387C782,387,795.3,386,797.3,387 M792.3,402.7c-7.4,0-3.2-2.7-4.7-2.7
	C788.7,399.6,795.1,399.9,792.3,402.7 M787.3,401.3L787.3,401.3C788,401.1,788.2,401.3,787.3,401.3 M782,402
	C782,399.8,782,402,782,402 M777.7,402.7c-1.8,1-7.3-7.7,4-2C782.1,402.9,780.7,402.7,777.7,402.7 M772.3,402.7
	c-6.5,0.6-9.1,2-16.7-1C753,402,778.5,402.7,772.3,402.7 M769,422.3c1.2,0-6.8,10.6-12.7,3.3C760,422.4,764.2,421.3,769,422.3
	 M769,431.3C769.7,431.7,769.3,431.3,769,431.3 M768.3,427.7C769.2,426.8,769.2,426.8,768.3,427.7
	C768.3,427.3,768.3,427.7,768.3,427.7z M767,435.7c1.1-4.3-3-3.3,2.7-3.3C771.1,434.5,770.3,435.7,767,435.7 M793.3,433
	c12,0-4.7,21.8,1.3,13c0.5,0.6-22,5.3-28.7,0.3C775.2,442.1,784.3,437.7,793.3,433 M798.7,430.7
	C802.9,434.9,794.2,430.7,798.7,430.7 M797.7,470c1.3-4.7,5,1,8,0C804.7,475.7,801,471,797.7,470 M801,561.3c1.2-7.4-3.1,1.8,5-3.3
	C804.3,559.1,802.7,560.2,801,561.3 M783.3,553.3c7.4-0.7,12.5,2,14,9.7C792.7,559.8,788,556.6,783.3,553.3 M777.7,566.3
	c2.6,1.1,3.9-1.2,4.7,2C776.9,570.7,775.4,570,777.7,566.3 M773.7,564.7c-6.9-9.5-5.3-11.2,5-5C778.7,579,765.2,559.5,773.7,564.7
	 M757.7,558c-5.5-5.5,6.7-4.3,8.7-4.3C763.8,554.7,760.7,553.8,757.7,558 M744.7,566.3c-11.7,7.5,3.1-2.4,2.7-3.4
	c-5.2-7.2-2.4-3,8.3,12.7C749.5,575.6,745.8,572.5,744.7,566.3 M742.7,624.3c2.8,2.1,4.5,2.6,5.3,6
	C747.5,630.2,739.7,626,742.7,624.3 M749.3,621.7c-1.2,1.8-2.6,1.5-4.3-1C745,616.1,749.7,621.9,749.3,621.7z M748,609.7
	C750.4,634.4,729.6,586.5,748,609.7 M724,531c13.4,3.2,5.1,1.4,15.7,5.3c-2,1.6-2.5,3.4-1.7,5.3C733.3,538.1,728.7,534.6,724,531
	 M729.3,674c-4.3-5.2,9.2,2.4,4,7.7C731.9,679.1,730.6,676.6,729.3,674 M726.7,673.3c0.7-0.7,3.2,8.9-3.4,0.9
	C723.1,671.8,724.2,671.5,726.7,673.3 M706.3,633.7C707.2,614.8,713.5,632.8,706.3,633.7 M692,579c-2.8-0.8-11.2-14.8-11.7-16
	C690.8,565.5,693.6,571.2,692,579 M685.3,677c6.8-6.8,3.2,9.6,6.6,8.1C681.8,686.4,679.6,683.8,685.3,677 M683.7,616
	C683.7,618.9,681.9,622.6,683.7,616 M677.3,588.7c-4.8-2.1-8.8-5.2-12-9.3C686,582.1,694,585,677.3,588.7 M664.7,646.3
	c-0.5,0.8,12.6-17.2,14.3-5.5C675.9,646.8,671.1,648.7,664.7,646.3 M666,686C664.1,686,666,684.1,666,686 M621.7,543.3
	c-0.7,0.7-1.3,1.3-2,2C619.7,539.1,629.4,540.8,621.7,543.3 M609.3,573.7c-3.2,0-4.8,1.9-5-3.3C606.5,570.6,608.1,571.7,609.3,573.7
	 M602.7,572.3c1.6,3.1,0.4,2.6-3.7-1.3C601.3,561.9,603.3,573.3,602.7,572.3z M600.7,579.3c-2,0.3-5.3,6.4-7.3,0.3
	C595.7,578.5,598.2,578.4,600.7,579.3 M602.3,582L602.3,582C603.2,583.3,603.2,583.3,602.3,582 M603,590c-3.3,1.1-5.9-0.5-7.7-5
	C601.2,581.1,601.2,587.9,603,590z M608.3,593.7c-3.1,4.4-5.2,4-6.3-1C605.6,591.3,606.9,593.3,608.3,593.7z M613.7,660.3
	C611.5,662.5,609.5,661.2,613.7,660.3C613.3,660.7,613.7,660.3,613.7,660.3z M618.3,657.3C608.5,645.1,618.7,657.1,618.3,657.3
	 M621.3,640C617.3,645,614.7,634.3,621.3,640 M613.7,675.7c0-0.6,7.1-3.5,4.3,4.7C612.5,681.7,617.6,677.6,613.7,675.7 M615,660.7
	c1.7,1.6,7.5,2,6.7,6.3C617.1,667.5,617.1,662.7,615,660.7z M606.3,662.7C611.3,662.4,614.1,662.2,606.3,662.7
	C605.2,662.7,606.4,662.7,606.3,662.7z M600,645c-3.6-10.7,5.1,6.9,5.3,8C601.3,651.7,601.7,647.5,600,645z M594,641.7
	C603.2,641.7,590.3,650.2,594,641.7 M589,660.7C589.7,659.3,596.5,660.8,589,660.7C589.3,660,589,660.7,589,660.7z M578.7,619.7
	C574.5,607.1,587.8,627.7,578.7,619.7 M578.7,612.7h-1c-1-0.3-4.7-2,2,0C579.3,612.7,579,612.7,578.7,612.7 M576.3,580.7
	c6.8-0.5,22.9,11.8,26.7,19.3C584,601.3,575.2,591.9,576.3,580.7 M568.3,548.7c-8.3-2.3-1.6-8.9,5-11.7
	C571.9,540.5,569.1,545.1,568.3,548.7 M566.7,616c0,3.8-3.3-1.8-3.3-2C563.9,611.6,567.6,614.1,566.7,616 M557,622.3
	C557,607.6,572.2,626.5,557,622.3 M554,628.7c5-1.3,5,2.3,8,3.3C560.7,635.7,552,633.7,554,628.7 M566,402.3
	C565.1,404.9,560.3,404.6,566,402.3C565.7,403.3,566,402.3,566,402.3z M574.7,390c1.1-1.7,2.6-2.3,4.7-1.7
	C577.6,393.5,572.6,390.5,574.7,390z M574.7,309.7c4.1-0.9,10.3-3.1,13.3-3.7C583.2,312.9,577,314.8,574.7,309.7z M571.3,283.3
	c2.5,1.2,2.6,3,0.3,5.7C569.2,288.7,571.4,284.4,571.3,283.3z M574.7,282.3c0.3,0.4-4.7-7.6-4.8-7.6
	C571.6,274.5,578.4,280.6,574.7,282.3 M592.3,228c3.3,4.6,6.2-1.5,2.7,7.4C595.1,235.2,591.1,231.6,592.3,228 M598.7,221.7
	c-0.4,2.2,0.1,5.6-3,4C597.8,219.3,595.9,226.7,598.7,221.7z M606.7,264.7c-5.8-0.9-7.9-4.2-6.3-9.7
	C604.6,258.2,604.7,261.8,606.7,264.7z M653,272.7c2.9-2-4,15.2-5,0.1C649.7,272.7,651.3,272.7,653,272.7 M667.7,288.7
	c1.2,0.8-7.3-1.7-5-1.7C662.4,284.4,670.4,284.9,667.7,288.7 M671,304.7C670.7,314.3,663.3,309.7,671,304.7 M694.7,318.3
	C695.9,318.3,691.3,332.5,694.7,318.3 M708,309.7c0.7,7.8-17.4,1.7-18,1.7C696,310.8,702,310.2,708,309.7 M703,267.7
	c-1,0-7.7,1.6-7.7,3.3C686,269.1,704.2,267.7,703,267.7z M699,271.3c2.2-2.2,3-2,5,0C701.4,272.3,699.2,271.3,699,271.3z M709,262
	C707.1,263,707.5,262.8,709,262L709,262z M712.7,293C715.4,290.2,712.7,292.6,712.7,293 M719.7,300.3c-7.1-0.2-9.3-0.3-6.7-0.3
	C714.3,297.6,717,297.4,719.7,300.3z M712,286.7C706.9,288.4,706.9,288.4,712,286.7C708.1,288,714.7,285.8,712,286.7z M711.7,289
	C712.1,288.1,712.1,288.1,711.7,289C711.7,288.7,711.7,289,711.7,289z M709.7,293.7C712,300.7,709,298.7,709.7,293.7
	C710.4,295.7,709.3,297,709.7,293.7z M720.7,309.7c-4.3-0.9-8.7-1.8-13-2.7C706.8,307,739.2,306.2,720.7,309.7 M723.3,376
	C731.9,370.6,730.6,374.8,723.3,376 M749.7,384.3c-7.6,7.6-13.6,9.7-23,4C734.2,386.2,741.9,384.9,749.7,384.3
	C748.1,385.9,743.1,384.8,749.7,384.3z M750.3,396.3C747.4,399.2,762.4,384.3,750.3,396.3 M753,400.7
	C750.5,400.7,755.7,397.9,753,400.7 M748.3,403C753.1,403,748.7,403.3,748.3,403 M749.7,404.3C749.1,404.3,746.6,401.6,749.7,404.3
	C749,404.3,749.7,404.3,749.7,404.3z M755,413.7c-5.7,0-12.4-5.5-15-8.7C776.3,392.9,770.3,413.7,755,413.7 M753.3,425
	c-2.7,4.5,6-13.1,6-5.3C757.3,421.3,755.3,423.1,753.3,425 M757.7,442.7c-2.1-0.6-4.1-1.4-6-2.3C754.7,437.9,764,441,757.7,442.7
	 M759,505.3c-0.9-1-13.1-10.8-6.3-5C763,495.9,765.1,497.5,759,505.3 M773.7,478c2.5-1.3,3.6-3.4,3.3-6.3
	C782.4,476.2,781.3,478.3,773.7,478 M781.7,518c0-1.7,11.9,3.9,9.7,8.3C783.8,525.9,784,522.9,781.7,518z M788,510.3
	c0.7,3.6-0.3,4.3-3,2.3C783.8,507.2,786,511.5,788,510.3z M796,531c0.6-2.6,1.1-3.5-1.3-5C798.4,525.1,801.6,531.9,796,531
	 M765.7,510C772.4,509.1,767.1,524.2,765.7,510C767.5,509.8,765.8,511.3,765.7,510z M768.7,528c4.5-0.1,4.6,1.4,0.3,4.7
	C767.4,531.4,767.3,529.8,768.7,528 M762.3,521.3L762.3,521.3c1.8,0.3,3.6,0.7,5.3,1C766.6,523.6,761.4,526.2,762.3,521.3
	 M775,524.7c-3.8,2.1,4.5,1.3-6.7,1.3C770.7,523.6,772.4,526.1,775,524.7z M794.3,535.7c-3.4,2-2.3,3.3-8,3.3
	C785.5,533.9,792.5,539.5,794.3,535.7 M778.3,523c0.7-4.6,1.9-4,3.3,1.7C781.1,527.7,776.6,522.7,778.3,523z M773.7,500.3
	C773.7,506.7,766.6,508.7,773.7,500.3C773.7,502,771,503.5,773.7,500.3z M746.3,515c-2,2.2-3.6,0.2-5-6
	C773,504.9,755.2,526.8,746.3,515 M737,531c0-4.3,4.5,1.2,4.7,3.3C742.1,534.5,736.2,531,737,531 M720.3,504.7c4.3-4,6.1-7.8,11.7-7
	C729.1,501.7,725.2,504,720.3,504.7 M722.3,553.3C726.6,549.7,721.7,565.4,722.3,553.3 M725.7,611.3c-5.3-2.7,7.9,3.4,6,3
	C730.9,617.6,726.9,611.3,725.7,611.3 M703,537.3c-0.2-1.7,6.6,4.9-3.1,1.3C697.6,536.9,698.6,536.5,703,537.3 M701.3,580.7
	c3.3-0.3,5,1.3,4.7,5C702.7,585.7,701.3,584,701.3,580.7 M704.7,611c-3.7,1-2.3-3-4.7-3.3C700.3,604,706,608,704.7,611 M693.3,560
	C695.8,560,698.3,571.7,693.3,560C694.1,560,694.1,561.9,693.3,560z M682,560c3.2-1.8,5.4-0.8,6.7,3
	C686.6,561.7,684.4,560.7,682,560 M666,534.7C666,538,675.2,536.6,666,534.7 M664.7,571c-1,0-2-2.3-1.7-3.3
	C665.3,562.3,666,570.7,664.7,571 M666,587.7c0,5.7-3.3-3.9-4.7-4C663.3,577.8,666,588.1,666,587.7 M674.3,590.3
	c-0.5,5.6-4.2,1.3-5,0C669.3,587.5,675.3,590.3,674.3,590.3z M667.7,617.7c4.3,1.7,5.3,6.3,9.7,8
	C672.7,630.7,668.7,621.3,667.7,617.7 M650,534.3c5.1-0.9,10.6-3.1,15.3-5.3C663.1,532.7,651.5,551.2,650,534.3 M650,567.7
	C664,567,648.5,558.5,650,567.7 M655,575.7c-1,2.3-3.3,3-6.3,3.3C649,576.3,651.3,575.3,655,575.7 M645.3,590.3
	c1.7,1.7,4.5-1.6,3.3,3.3C643.8,594.9,647,592,645.3,590.3z M649.7,563c-0.7,2.3-1.6,4.5-2.7,6.7C644.3,566.1,645.2,563.9,649.7,563
	 M648.7,516.3C645,521.3,638.3,514.7,648.7,516.3 M649.3,503.7c2,3.4-0.3,4.4-7,3C643.1,503,645.4,502,649.3,503.7 M637.3,466.7
	c4.7,1.8,9.3,3.6,14,5.3C647.9,475.4,634.6,474.7,637.3,466.7 M637.3,555C642.7,559,629,559,637.3,555 M635,258.7
	c-1.1-3.3,3.3-4.2,5.7-3.7C640.2,258.8,638.3,260,635,258.7 M643.7,348.3c1.7-1.7,0.3-6,4.7-4.7
	C648.7,346.7,647.3,348.3,643.7,348.3 M647,372.3C647.6,374.8,649.8,359.8,647,372.3 M666,370.7c2.3,1.6-6-3.2-6.2-2.2
	C660,367.3,668.3,365.3,666,370.7 M669,325.3c-2.3-0.4-3.7-1.6-4.2-3.6C675.3,319.3,668.3,323.8,669,325.3z M675.3,327.3
	C670.8,323.8,675,318,675.3,327.3C674.8,326.9,675.4,330.1,675.3,327.3z M690.3,330.7C690,328.2,671,344.5,690.3,330.7 M692,327.3
	C692,329.1,689,329.5,692,327.3C692,327.7,692,327.3,692,327.3z M703,353c0,4.3-4.3,4-6.3,6.3C694,358.7,697.7,351,703,353
	 M705.7,319.3c-2.4,2.4-3.3-0.4-0.7-3C709.3,315.5,709.5,316.5,705.7,319.3 M717.3,321c-4.1-4-3-6,3.3-6
	C718.7,316.5,717.6,318.5,717.3,321 M716.3,355c-6.2,0,5.2-7.1,9.3-4C723.4,354.5,720.3,355.8,716.3,355 M720.7,372.7
	c0,4.8-8.1,7.5-11.3,7.7C708.4,372.7,715.5,372.1,720.7,372.7 M727,394.7c-0.6,0-21.7,6-6.7,3C722.2,395.6,719.1,383.8,727,394.7
	C737,394.7,728.1,396.2,727,394.7z M751,419.7c-5.2,3.5-26.7,5.7-37.3,5.7C716.9,405.2,751,419.6,751,419.7 M751,450.7
	c-1.2-0.1-25.2-5.1-0.4-6.2C758.1,450.3,758.2,452.4,751,450.7C749.1,450.5,751,450.7,751,450.7z M745.7,487c2.7-2.6,5.7-2.9,9-1
	C754.1,493.9,742.2,494,745.7,487 M741.7,489.3C741.5,483.7,741.5,483.9,741.7,489.3C741.7,491.3,741.8,493,741.7,489.3z M733.7,492
	C738.9,484.3,742,501.5,733.7,492C736,488.5,734.8,493.3,733.7,492z M730,495.7C732.8,490.1,732.8,495.7,730,495.7
	C730.3,495,730,495.7,730,495.7z M722.7,494c0-2.1,1.3-9.6,3-11.3C728.1,489.1,724.4,491.1,722.7,494z M708,526.3
	C722.1,520.5,716.4,526.3,708,526.3C710.7,525.2,708,526.3,708,526.3z M669.3,508c1.1-1.5,2.7-1.3,4.7,0.7
	C673.5,512.5,669.4,508,669.3,508z M662,508.3C663.1,514.1,659.5,511.7,662,508.3 M651.7,505.3C653,502.2,668.9,505.3,651.7,505.3
	 M654.7,473.3c5-2.1,14.1-6.3,19.3-9.7c-7.3,4.3-11.6,10.6-13,19C655.8,485.3,650,477.6,654.7,473.3 M653.3,438c3.8-6.3,4-2.4,9.7-3
	C664.3,440.5,655.6,440.2,653.3,438 M669.3,354.7c-0.1-1.5,5.2,9.2-3.7,6.7C666.9,359.1,668.1,356.9,669.3,354.7 M672.7,354.7
	c-0.7-0.7-1-1-1.7-1.7C675,348.7,680,353.7,672.7,354.7 M675.7,385c-8.2-2.1,9.2-9.8,11.3-9.7C683.3,378.6,679.5,381.9,675.7,385
	 M679,407.3c0.3-2.7,2.7-3.7,6.3-3.3C685,407,682.7,408,679,407.3 M691,471.7c4.8,9.7-21.2-10-10.9-8.2
	C682.8,467.3,686.5,470,691,471.7 M694.7,410.7c5.4,0.8,10.9,1.6,16.3,2.3c3.7,1.7-29.9,6.1-2.3,7
	C700.7,434.3,683.3,417,694.7,410.7 M697.7,385c2.9-5.8-1.9,21.5-4.4,2.7C694.7,386.8,696.2,385.9,697.7,385 M712,350.3
	C700.2,353.9,710.2,350.3,712,350.3 M717,390.3c0,4-4.2,5.8-7.3,2.7C710.9,392.4,716.9,390.4,717,390.3 M709.3,401.3
	c1.9-1.9,3.3-2.7,6-2C707.4,403.6,705.4,404.2,709.3,401.3 M703,409C695,414.4,703,403.8,703,409 M694,405.7c4.5,0-1-7.7-0.7-9.3
	C719.3,400.4,703.9,391.5,694,405.7 M714.3,410.7c-6.7-8.4-9.2-1.7,5-7.7C724.7,406.8,723,409.3,714.3,410.7 M713.7,413
	C713.4,411.8,712.8,409.5,713.7,413L713.7,413z M721,430c-4.7,6.2-15,10.7-22.7,4.7C704.8,427.8,715,426.3,721,430z M725.7,433.3
	C725.7,415.7,741.1,446.4,725.7,433.3 M735,442.7c-0.4,0.2,2.3,7-4.3,1.7C729.5,442.5,730.9,442,735,442.7 M738.7,443
	c0-2.4,5.9-2.1,7.7-1.7C743,448,739,443,738.7,443 M726.7,446C736,456.9,686.3,432.1,726.7,446 M685,485
	C685,481.6,685,487.8,685,485 M675,468.7C675,466.9,675.1,466.6,675,468.7L675,468.7z M675.7,428.3c-1.3,2.7-5.7,4-8,1.7
	C667.3,426.3,673.3,429.3,675.7,428.3 M668.3,378.7C668.3,375.1,665.4,393.5,668.3,378.7 M666.7,505.3c-0.4-2.2-4,2.6-2.3-3.3
	C670,501.7,666.3,503.3,666.7,505.3z M664.7,481.7C661.7,486.8,664.7,481.7,664.7,481.7 M659.3,484.3
	C663.6,484,663.1,494.1,659.3,484.3C662.4,484.1,659.7,485.4,659.3,484.3z M677,491.3c-2.3-3.9-27.4-16.1-4.3-20.7
	c1.2-5.5-3.3,18.7-3.3,7.7c3.3,0.9,6.5,0.7,9.7-0.7C679,483.3,688.5,490,677,491.3C679.6,495.6,679.8,491,677,491.3z M685.3,482.7
	C676.5,481.1,696.7,469.8,685.3,482.7 M701,490.7C695.1,493.6,706,488.2,701,490.7 M705,490.7C704.5,480.2,710.4,483.1,705,490.7
	 M704,491.7C704.3,491.4,707.1,498.8,704,491.7C704.3,491.3,704,491.7,704,491.7z M715.7,484C714.6,484.5,710.6,482.3,715.7,484
	C715,484.3,715.7,484,715.7,484z M717.3,473.3c-5.6,8.2-21.1,4.5-25-3.3c6.1-0.9,5.4-2.6-1.9-5.1
	C707.8,479.3,709.7,454.7,717.3,473.3 M724,453.3c3.6-1.4,5.3-1.6,7.7-0.3C729.2,454.8,726.7,454.9,724,453.3 M746.3,454
	C728.1,453.2,738.1,452.7,746.3,454C743.4,453.9,743.5,453.5,746.3,454z M748,458.7c1.6,0.6,3.1,1.1,4.7,1.7
	C752,467.6,744.6,454.8,748,458.7z M722.7,404c-2.7-2.7,1.1-2.5,3-3C727.3,402.9,726.3,403.9,722.7,404 M714.3,359
	c-1.5,0.1-1.9,5.2-4.7-1.7C711.2,357.9,712.8,358.4,714.3,359 M716,349.7C714.6,350.4,714.2,350.6,716,349.7L716,349.7z
	 M699.7,380.3c0.6-3.8,4.8,1.4,5,2C703.3,387.7,698.4,380.1,699.7,380.3 M679.7,327.3C681.3,331.6,680.8,330.2,679.7,327.3
	C679.9,328,680.7,329.9,679.7,327.3z M652.3,314c2.6-1.3,5.1-2.7,7.7-4C669,315.2,646.4,314,652.3,314 M641.3,370.3
	c-10,0,1.3-5.3,3.3-5.7C643.6,366.6,642.5,368.5,641.3,370.3 M645.3,378.7c6.2-1,24.1-12.2,20,4.3c4.1,4.1-28.8-9.6-2.4-7.5
	c-4.3,2-8.3,4.6-12,7.6C657.9,373,642.8,389.1,645.3,378.7 M645.3,548.7c-0.3-3.3,5.7-0.7,8-1.7
	C653.7,550.3,647.7,547.7,645.3,548.7 M685.3,497.3c-4.4,0,4.9,9.6-12.7,3c8.8-11.8,23-6.6,33.7-5.3
	C710.5,507.4,687.8,500.5,685.3,497.3 M683.7,532.7c-0.3-2.7,10.7-3.3,8,1.7C688,535,688.3,531.3,683.7,532.7 M708,534.3
	c-0.1-0.7-7.8,0.4,3.3-3C711.3,533.4,710.2,534.4,708,534.3 M720.7,567.7C717,573,714.3,562.3,720.7,567.7 M714.3,529.3
	c0.1,0,6.3-4.8,6.3,0C718.6,529.3,716.4,529.3,714.3,529.3z M722.3,482.7c1.3,13.5-4.6,21.1-17.7,22.7
	C707,502.9,730.4,466.1,722.3,482.7C722.3,496.1,722.9,481.6,722.3,482.7z M735,510c3-0.4,7.2,1.7,8,4.7
	C742.7,516.7,733.7,514.8,735,510 M743.7,547c-1.5-3.2-3.7-2.5-3.7-6.3C741.3,540.9,750.5,546,743.7,547 M736.7,409
	C734.6,414.8,729.5,407.3,736.7,409 M736.7,399.7c0-6,6.8-6.7,9-2.3C744.5,397.9,733.3,401.2,736.7,399.7z M712.7,313.7
	C713.1,314.6,713.1,314.6,712.7,313.7 M713,314.7c4.7,6.1,3.9,9.3-2.4,9.4C702.7,323.4,703.5,320.3,713,314.7
	C712.2,319.3,710.4,316.6,713,314.7z M695,315.3c2-0.1,4-0.2,6-0.3C699.3,318.3,697.5,315.6,695,315.3z M659.7,304.7
	c0.1,3.4-2.8,4.8-8.7,4.3C649.8,307.5,657.6,299.9,659.7,304.7 M645.3,263.3c3.3,0.3-1.7,5.7-4.7,4.7C638,262.3,646,267,645.3,263.3
	 M643.7,245.7c-3-1.3-0.3-3,0-4.7C646.7,242,644,243.7,643.7,245.7 M621.3,242.3c0.3-2.1-1.3,7.7-1.3,8
	C616.1,249.9,621,243.7,621.3,242.3z M607.3,397.7c-1.7,0-3.3-0.1-5-0.3C601.9,394.2,610,397.1,607.3,397.7 M613.3,348.3
	c1.7,4.7-3.3,2.7-6.3,3C608,349.3,610.3,348.3,613.3,348.3 M594,401C624.6,398.2,595.2,409,594,401 M602,442.7c-1.7,0.7-3.3,1.3-5,2
	C597.3,440.4,602.6,440.2,602,442.7 M595.7,454c-3.2,0.2,3.4-7.7,6.7-7.7C606,449.5,596.1,452.1,595.7,454 M589.3,301.7
	c0.8-4,1.8-4.4,2.9-1.2C591.4,305.5,589,301.8,589.3,301.7z M589.3,232.7c-0.2,3.9,9.2-4.2,0,9.7
	C586.3,241.4,590.2,234.7,589.3,232.7 M595.7,471.7C601,472,586.7,471,595.7,471.7 M584.3,205.3c-2.1,2.1,3.4,8.3-3.7,10.7
	C579.5,212.6,578.8,205.6,584.3,205.3 M578.3,228c1.6-5.7,4.3-11,8-15.7C589.1,217.4,588.5,229.6,578.3,228 M582.7,402.7
	c0.7-2,2.7-2.3,3.3-4.7C590,398.3,586,404,582.7,402.7 M581,377c1.7,1.7,4.5-1.6,3.3,3.3C579.4,381.5,582.7,378.7,581,377z
	 M576.3,454c2-2.3,4.7-4,6.3-6.3C585.7,448.7,580,454.3,576.3,454 M569.7,534.3c-1.8,1.7-1.1-3.9,4.7-3.3
	C574.3,533.4,570.8,533.2,569.7,534.3z M563.7,508.7C558,504.3,571.7,504.7,563.7,508.7 M555.7,551.7
	C561.6,544,562.5,547.9,555.7,551.7 M570,487.7c0.3,2.2-3-1.7-3-1.7C568.1,481.5,577.2,489.1,570,487.7 M562,494
	c-0.4-3.9,3.5-5.4,6.3-4C567.1,492.6,564.9,493.9,562,494 M562,447.7c2.8,2.1,8.7,9.6-3,12.7C553.6,456,564.5,453.4,562,447.7
	 M573.3,436.3c-1.3,5.7-8-0.7-13,3.3C563.3,434.3,567.7,435.7,573.3,436.3 M576.3,478c4.5,0-1.8,3.7-1.7,3.7
	C570.9,480.4,575.9,480.3,576.3,478 M566.7,402.7c0.8-3.2,2-3.3,4.7-3.3C568,404.5,564.6,404.3,566.7,402.7z M555.7,406
	C559.6,405.2,562.1,417.7,555.7,406 M553.7,580.3c-3-2-0.2-7.2,1.3-10.3C558.5,573.7,558.1,577.1,553.7,580.3 M592.3,577.7
	c-2.2-3.6-3.8-0.8-1.3-7C589,570.7,595.7,577.7,592.3,577.7 M621.3,269.7c-8.4,9.8-12.3,8.7-11.7-3.3c7.7,4,13.8-11.3,23.7-11.3
	C628.7,259.4,624.7,264.3,621.3,269.7 M626,434.7c3.2-4.3,4.5-6.5,6.3,1.7C630.2,435.8,628.1,435.2,626,434.7 M626,451.3
	c-18.6,0-4.4-10.4,6.7-6.7C630.4,446.9,628.2,449.1,626,451.3 M626,458.7c-0.6,0.5,3-4.1,3-3.7C630.1,456.3,632.8,462.8,626,458.7
	 M631,510C623.3,507.7,628.7,502,631,510 M625,535.3c0-0.1-1.9-9.7,2.1-3.6C632.2,539.6,625.6,533.5,625,535.3z M666.3,636
	c-7.6,3.5-10.5,0.5-8.7-9C658.9,627.1,674.2,636,666.3,636 M685.7,577c-8.7-8-2.7,3.2-2,4c-6.9-3.4-11.1-8.8-12.7-16.3
	c2.1,3.2,3.6,2.9,4.5-0.9C680.2,567.1,683.6,571.5,685.7,577C683.4,574.9,684.6,574.1,685.7,577z M698.3,574.3c-1.3-6-6.5-6.5,0-8.7
	C698.5,565.8,705.7,576.1,698.3,574.3 M719,612.7c1.1,0.8-8.5-3.8-6.7-3.3C716,601.3,718.7,613.7,719,612.7 M744.7,600
	c0.7-0.7-5-1.7-5-1.7C739.7,595.7,748.7,596,744.7,600 M738.3,545.3c1.8,0,3.4,1.7,4,3.7C739.2,550.2,738,549.8,738.3,545.3
	 M756,560C753.7,573.7,752.2,533.7,756,560C755.8,561.2,755.9,559.2,756,560z M779,552.7c-5.1-1.3-10.2-2.7-15.3-4
	C781.2,543.8,786.3,545.1,779,552.7 M789.7,547C771.6,539.7,811.7,540.6,789.7,547 M801,511.7c-3.5,8.4-6.5,8.5-9.1,0.4
	C791.8,510.1,800.3,511.6,801,511.7 M778.3,465.3c1.3,0.5-11.4-3-3.8-4.4C777.2,461.1,778.5,462.6,778.3,465.3 M770.3,465.3
	c5.1-0.4-9.3,7.9-8-1.7C764.9,464.6,767.6,465.1,770.3,465.3 M712.7,277.7c-3.1,9.6,10.6,0-5.3,5.3
	C708.4,280.7,710.2,278.9,712.7,277.7 M704.7,268.7c1.4-2.3-0.5-3.6,3.3-4.3C707.8,266.7,706.8,270.8,704.7,268.7 M683.7,297
	c-19.1,3.8,8.8-9.3-9.7-2.7C683.7,281.2,686.9,282.1,683.7,297 M662.7,267.3c3,0-3.4,6-8.3,4C658,271.6,660.6,270.3,662.7,267.3
	 M645.3,223C644.4,231.7,644.1,223,645.3,223 M637.3,234.3c8.7-5.3-10.2,9.1-11,11C628.2,239.8,632.1,237.5,637.3,234.3 M624.3,207
	C625,207.2,620.8,196.5,624.3,207 M615,237.3c0.1-0.4,3.6,1.7,1.7,5C608.5,234.3,617.8,242.1,615,237.3z M583.7,194.3
	c1.7,0,4.6-2.1-0.7,5C573,197.3,583.9,193.7,583.7,194.3z M570,205.3c0.1-4.1,1.8-6.5,5-7C575.5,201.6,574.5,206,570,205.3
	 M566.7,394.7c3.4-4.2,5.8-4.7,7-1.3C571.3,393.8,569,394.2,566.7,394.7z M560.3,282.3c4,0.3,0.7,5.3,0,6.3
	C555.7,287.7,562,285.3,560.3,282.3 M558.7,324c-5.9,10.9-4.4-8.2,5,0C555.5,381.2,557,312.6,558.7,324 M550.7,445
	c-0.7,3.7,0.6-7.4,1.3-5.3C561.8,438.8,547.3,446.8,550.7,445z M541,578.7c-1.8-5.4,8.3-10.4,12-11.3
	C548.1,579.5,551,572.6,541,578.7 M584.3,658c-5.2-3.8-4.7-7,5-7C589.3,654.7,585.9,655.3,584.3,658 M595,662.7
	C593.1,661.3,597.9,662.7,595,662.7 M616.7,579c-0.9-1.7,4.7-9.8,7.2-4.2C623.8,574.6,617,578.7,616.7,579z M642,638.3
	c-2.5-6.9-6.2-12.9-11.3-18C644.5,598.4,662.4,644.4,642,638.3 M664.3,682c-3.9-1.9-7.4-4.3-10.3-7.3
	C658.9,675,662.4,677.4,664.3,682C664.7,681.7,664.7,681.7,664.3,682L664.3,682z M671,654.3c1.4-7.1,5-1.7,7.7-1.7
	C676.6,655,674.1,655.6,671,654.3 M698.3,665.7c4.6-1,7.9,0.5,9.7,4.7C706.1,672.2,697.7,668.1,698.3,665.7 M712.7,617.7
	c0-2.6,3.7-1.8,5-1C716.7,619.6,715,619.9,712.7,617.7 M751,678.3c-0.1,0.1-9.5,8.8-6.3-1.3C744.5,676.9,752.1,678.4,751,678.3z
	 M801.3,431.7C821,428.5,794.4,439.1,801.3,431.7C804.6,431.1,799.8,433.3,801.3,431.7z M802.3,425.3
	C802.3,428.6,801.4,425.3,802.3,425.3 M815.3,436.3c0.7-0.9,15.9-3.7,20-2.7c-5.8,5.4-12.5,7.8-20.2,7.2
	C808.8,428,808.9,426.5,815.3,436.3 M831,448C847.7,464.7,807.7,429.4,831,448 M836.7,454.7c6.4,4.3,12.9,8.7,19.3,13
	C850.4,473.3,836.5,454.7,836.7,454.7 M839.3,465.3c0.1-0.3,4.6,1.1,2.7,3C840.9,468.2,828.7,464.6,839.3,465.3 M832.3,514.7
	c1.5,2.9-6.4,1.1-5.7-3C829.1,511.7,831,512.7,832.3,514.7 M844,515.7c4.8,0.9,9.3,2.5,13.7,4.7C843.7,524.3,826.4,508.9,844,515.7
	C848.8,516.6,841.5,514.7,844,515.7z M853.3,532.7c-4.8,9.7-13.8,0.8-17.7,4.7C837,530.5,847.4,532.7,853.3,532.7 M834,548
	c-15.5-7.7,2.6-0.6,3.3-8.3C844.3,540.2,843.2,543,834,548 M835,559C817.8,559.5,832.2,547.6,835,559 M826.7,471.7
	C823,476.7,816.3,469.7,826.7,471.7 M826.7,548.7c-2.8-0.5-5.2-1.8-7.2-3.8C817.6,541.5,829.6,551.3,826.7,548.7z M830.7,547
	C832.9,548.1,832.2,548.6,830.7,547 M830.7,552.3C830.7,554.8,828.5,552.3,830.7,552.3 M812,474.7c1.7,0.3,1,3.3,3.3,3.3
	C814.7,482.7,810.3,478,812,474.7 M817,553.3c4.7,1-2.3,2.3-1.7,5C810,556.7,817,555,817,553.3 M835.7,566.7
	c0,23.6-15.5-2.8-14.8-2.9c3.4,1,5.7,3,6.8,6.3C828.9,570,828.2,551.8,835.7,566.7 M836,563.3c1.1-1.1,4.7-5,4.7,0.7
	C837.6,567.1,836.9,566.1,836,563.3 M852.7,564.3C857,566.5,846.8,575.3,852.7,564.3 M852.3,611C851.7,611.2,851.3,611.3,852.3,611
	L852.3,611z M761,702.3c1.5,0.2,0.2-2.1,3.7-0.3C763.7,706.4,762.8,702.6,761,702.3z M581.7,781.3L580,776
	C581.3,777.7,582.3,779.3,581.7,781.3 M470.7,248.7c3-4.7,5.7,4.7,6.3,8C472,256.7,475.3,248.7,470.7,248.7 M475.3,418.7
	c-5.9-1.2-3.5-4.1-1.3-5C479.2,413.7,474.5,415.7,475.3,418.7 M473.7,438v-1.7C481.3,435,466,446.7,473.7,438 M467.3,595
	c-10.9,6.8-1.7,3.3-16.7-5c11.2-11.2,0-1.7,6-7.3c6.1,4.8,11.1,10.6,15,17.3C470.2,598.3,468.8,596.7,467.3,595 M469,609.7
	c-2.4-2.1-2.6-3.4-0.3-4C474.2,622.2,470.9,602.6,469,609.7z M453.3,675c2.8-2.5-22,4.1,4.3-4.7C457.4,673.9,455.7,673.1,453.3,675
	 M447,672.7c-13.9,1.7,6.2-7.2,5.7-12.3C456.4,666.5,454.5,670.6,447,672.7C445.2,672.9,449.9,670.2,447,672.7z M438.7,669.3
	c-7.8,7.6-37.1-13.1-26.7-20c-0.1,2.8,13.4,5.9,16.7,7c-6.6-3.4,0.8-17.7,10.3-6.3c-1,0.3-9.1,10.8-1.3,14.7c2.1-2.1,4.5-3.8,7-5.3
	C449.8,663.5,447.8,666.9,438.7,669.3C434.6,673.3,442.4,669.5,438.7,669.3z M421.7,671.7C406.6,669.9,418.2,671.6,421.7,671.7
	C418.8,671.3,424.6,671.8,421.7,671.7z M411,675.3C413.8,669.5,412.6,675.3,411,675.3 M403,675.7c-0.2,4.2-5.5-11.7,2.5-3.3
	C406.4,677.1,405.6,678.2,403,675.7 M395.3,659.3c0.4-0.4,4.7-6.9,2-4.7C403.8,656.3,403.1,657.9,395.3,659.3 M380.7,669
	c1-4,6-3.7,9.7-4.7C389,667.7,386.3,669.7,380.7,669 M372.7,592c8.6-3.7,11.7-9.8,22.3-8C397,596.1,380.3,591.7,372.7,592
	 M376,659.3c-3-0.3-1.3-5.3-5-4.7C372.7,650,377.7,655,376,659.3 M366.3,670.3C362.4,670.3,375.4,658.3,366.3,670.3 M364,684.7
	c-2.3-4.7,0.8-2.9,2.3-7.7C369.8,678.2,364.6,684.7,364,684.7 M356.7,659.3C361.4,655.4,361.8,655.1,356.7,659.3
	C358.7,657.6,358.3,658,356.7,659.3z M348.7,654.3c-1.7-1.7-4.5,1.6-3.3-3.3C350.2,649.8,347,652.7,348.7,654.3z M340.3,668.3
	c-0.9,1.6-4.2-3.4,2.7-4C346.4,664,339.2,670.2,340.3,668.3z M336,630.3C343.4,633,336,645.6,336,630.3
	C337.6,630.9,336,633,336,630.3z M332.7,620.7c2.4-8.3,14.3-16,22.7-16C348.9,612,341.1,620.7,332.7,620.7 M320.3,678.7
	c-2.1-2.1,2.4-2.7,3-2.7C325.1,681.2,325.5,677.4,320.3,678.7 M316,682.3C297.2,681.3,326.3,680.1,316,682.3 M303.7,680.3
	c-4.7,4.5-8.3,3.8-10.7-2C308.8,669.2,307.6,671.5,303.7,680.3C297.9,683.3,306.2,674.6,303.7,680.3z M287.7,667.3
	c-0.9,0.8,6.2-10.8,8.3-4.3C294.1,665.9,288.7,664.7,287.7,667.3 M276.7,668.3c-11.7-15.5,14.7-6.1,14.7-8.3
	C287.8,665.4,283.1,668.3,276.7,668.3 M265.3,664.3c-0.7-2.3-5.3,2.5-3-2C262.2,662.3,274.7,661.2,265.3,664.3 M254,664
	c-1.4-4,5.5-4,7.3-3.7C259,662.7,258.2,664.8,254,664 M249.7,676.3c-2.1,0.8-4.2,1.6-6.3,2.3C246.9,676.3,253.6,675.7,249.7,676.3z
	 M242.3,678.3c-4.7-2.4-0.9,3.9-8.7,1.3C231.6,675.6,242.3,676.6,242.3,678.3 M230.3,679.7C209.7,679.7,237.9,670,230.3,679.7
	 M196.3,681.7c1.5-3,4.9-9.3,12.7-9.3C209.9,673.7,196.7,679.8,196.3,681.7 M188.3,681.7c2.2-1,3.3-3.7,6.3-3.3
	C192.9,680.1,191.8,682.1,188.3,681.7 M234.7,672c0-4.1,3.5,1.6,3.7,2.3C233.7,675.9,236,672.7,234.7,672z M227.7,658
	c-1.2-3.3,0.6-3.7,5.3-1.3C231.7,659.1,229.9,659.5,227.7,658 M262,649.7c0.3,4.7-4,4.7-8,4.7C255,651.3,258.3,650,262,649.7
	 M255,643C255,637.3,266.2,637.1,255,643 M217.3,648c-15.9-7.9,7.7-34.8,34.3-39c7.6,10.8,17.7,19.3-16,24.3c-0.5-4.2,0.5-8,3-11.3
	c-0.1-0.1-13.3,21.8-14.7,19c0-4.7,37.9-20.7,43.5-20.3C254.1,619.8,256.1,672.2,217.3,648 M208.3,643.7c-1.7,1.7-6.7,1.4-9.3,1
	C201.9,645.6,205.4,634.8,208.3,643.7 M214,624c1.9-2.3-2.3-2.9,3-4.7C217.9,622.3,217.1,624,214,624z M209,612.7
	c-6.5,3.5-12.8,7.3-19,11.3c2.6-10.4-1.1-12.5-11-6.3c0.1-0.7,40.8-17.9,43.3-17.7c-3.6,7.2-8.9,6.3,0,6.3
	C219.6,613.9,215.1,616,209,612.7 M180.3,561.3c-17-14.2-2.1-2.7-3-3.3c22.3,0,23.9-11.6,44.7,11c-11.5,3.9-15.4,0.7-27.3,3.7
	c0-10.4,13-0.6,13-7.3C209.3,560.4,181.9,561.8,180.3,561.3 M167.3,567.7c1.8-16,15-1,14.7,3.3C177.1,569.9,172.2,568.8,167.3,567.7
	 M167.7,585.3c-1.8-0.5-3.5-1.3-5-2.3C165.2,581.7,175.7,581.3,167.7,585.3 M161,589.3C150.9,591.1,176.7,590.3,161,589.3
	 M141,598.3C136.6,602.9,151.8,594.7,141,598.3 M135.3,567.7c-0.9,0.4-0.9,0,5,0C138.8,569.7,137.1,569.7,135.3,567.7 M128.7,558.3
	c1-0.9,6.4-3.8,5.3,1.7C131.9,560.5,130.1,559.9,128.7,558.3 M124.3,557.3c-5.1-3.9-4.3,4.2,0-4.3C126,554.3,126,555.8,124.3,557.3
	 M150,556.7c1.2,0.8-7.4-1.7-5-1.7C144.5,552.6,152.6,552.3,150,556.7 M164.3,577.3C148.4,584.4,161.1,576.6,164.3,577.3 M164.3,547
	c3.1-2.4-7.7,8.6-4.7-1.7C161.2,545.9,162.8,546.4,164.3,547 M172,550c-2.3,0-5.3,2.7-5.3-1.7C168.4,548.9,170.2,549.4,172,550
	 M161,555c-1.1,1-2.2,2-3.3,3C157.7,555.8,158.8,554.8,161,555 M179,536.3c5.1-2.5-1.3,4.6-3.3,4C176.4,538.7,177.5,537.4,179,536.3
	 M193,533.3c8.9,3.7,14.3,10.2,16.3,19.7c-7.6-1.9-16.4-16.6-18.7-5.7C189.6,547,195.7,532.4,193,533.3 M188.3,521.7
	c2.5,2,5.8-0.7,4.7,5C191.2,525.7,189.2,523.4,188.3,521.7 M186.7,517.3c-8.8-3.8-9-5.7-0.7-5.6
	C194.9,515.4,193.2,517.3,186.7,517.3 M177,510c-10.3-10.9-8.2-15.7,6.3-14.3C183.9,501.6,181.8,506.4,177,510 M153.7,498.7
	c-6.6,0,3.4-10.8,10.7-6.7C160.6,493.9,157,496.1,153.7,498.7 M157.7,512C159.7,502.7,166,507.8,157.7,512 M136.3,496.3
	c3.5,0.5,6.1-3.3,5.7,3C139.8,499.5,137.9,498.5,136.3,496.3 M158,488.3c-3.6,2.8-6.9,5.9-10,9.3C145,492.4,148.2,485.9,158,488.3
	 M161,488.7L161,488.7L161,488.7L161,488.7 M187,495.7c13.1,2.6,42.1-6.4,53,6.7c-14,8.9-29.1,11.6-45.3,8
	C209.1,487,187,521.1,187,495.7C190.7,496.4,187,505.7,187,495.7z M204.3,482.7c1.1,1.6,4.2-1.5,3,3.3
	C203.3,487,204.3,485.7,204.3,482.7 M203.3,461.3c4.7-1.6,9.3-3.1,14-4.7c-0.9,2.8-2.6,5-5,6.7c2.9,2.9,23.5-5.7,27.3,0.3
	C227.1,472.9,215,472.2,203.3,461.3 M200.3,457.7c-8.6-0.9,13.8-10.3,22.3-6C214.8,452.3,207.4,454.3,200.3,457.7 M192,460.7
	C193,461,194,462.7,192,460.7 M190.3,455.3C158.8,455.3,206.6,447.1,190.3,455.3C186.9,455.3,192.3,454.3,190.3,455.3z M191.3,456
	C188.5,458.7,192.7,454.7,191.3,456L191.3,456z M185.3,435.3C190,438.1,192.3,442.3,185.3,435.3 M198.3,427
	C198.9,427,185.7,427,198.3,427 M207.7,444.3c4.1,3.2,1.5,4.1-7.7,2.7C201.8,444.3,204.4,443.4,207.7,444.3 M220.3,442.7
	C213.1,444.8,205,440.6,220.3,442.7 M222.3,428C218.4,427.4,214.1,416,222.3,428 M225.3,449.3C222.8,446.4,225.4,448.1,225.3,449.3
	 M223.7,455.7c-0.3,0.3-1.2,4.3-4.7,4.3C219,454.2,221.2,458.3,223.7,455.7z M224,430.7c8.7,5.9,10.3,11.5,17,19.3
	C241.3,449.6,207.8,433.4,224,430.7 M249.3,468.3c-7,5.8-14.6,7.1-23,4C228.2,471.7,251.5,459.1,249.3,468.3 M258.7,457.3
	C250.9,458.7,250.9,458.7,258.7,457.3 M268.3,462.3c6.1-2.1,10,0,11.7,6.3C263.1,469.2,259.2,467.1,268.3,462.3 M274.3,448.3
	c-8.1-18.9,22-0.7,22-4.3c-6.1,0.2-8.4-1.3-7-4.3c9.7-1.6,24.5,3.4,27.3,15.7c-2.3-2.1-4.9-3.5-8-4c2,4.3,5.4,6,10,5.3
	C311.2,460.9,278.4,454.9,274.3,448.3 M268.3,443c-3.5-1.7-4-1.8-5-5.7C270.4,438.9,267.4,441.6,268.3,443z M258,432.7
	C258.7,432.7,261.1,429.4,258,432.7 M262,426.7c-1.9,9.5-4.7-2-4.7-3C257.6,423.8,262.6,426.7,262,426.7z M255,418.7
	c-1.7-10.5,0.6-13.7,7-9.7c-0.5,13.3,24,1.1,24,14.3C269.3,427.4,270.9,425.4,255,418.7C255.3,416.4,257.3,419.7,255,418.7z
	 M256,430.7c-9,4.2-17.1,2.8-24.3-4C232.2,419.4,253.6,423.5,256,430.7C246.8,432.5,250.6,414.5,256,430.7z M241.3,416.3
	c1.1-5.4,6.7-1.4,8,2C246.3,419.3,240,419,241.3,416.3 M236.3,404.3C242.1,405.7,239.2,407.2,236.3,404.3 M233.3,374
	c0-2.2,7,0.3,8.7,0.3C239.1,376,236.2,375.9,233.3,374 M232,376l0.3-0.3C232.2,375.8,232.1,375.9,232,376z M245,367.3
	c4.1,0.1,6.5,2.2,7,6.3C243.5,372.3,246.6,370.6,245,367.3z M251.3,356.7c3.8,0,7.7,4.7,7.7,9C250.9,367,250.3,364.2,251.3,356.7
	 M262,322.3c-1.6-1.7-5.7-1.1-6.3-7.7C260,315.3,262.1,317.9,262,322.3 M265.3,307.3c1.1,1.1,3.2,1.9,4.7,2.7
	C267.7,315.1,261.5,303.5,265.3,307.3 M287,313.3C288.9,312.5,270,320.1,287,313.3 M283,329c1.4-1.6,0-8.7,9.7-1.7
	C291.4,331.2,285.2,324.7,283,329 M287.7,338.7C292.3,336,296.7,345.3,287.7,338.7 M295.7,356.3c-4.6-4.6,4.4-1.7,4.7-2.2
	C298.8,354.9,297.2,355.6,295.7,356.3 M281.7,295c1.2-6.3,4.4-7.9,9.7-4.7c-3.7,3.9,3.2,17.6,3.7,17.3
	C290.6,303.4,286.1,299.2,281.7,295 M291.7,295C294.8,296.3,294.8,296.3,291.7,295C293.1,293.8,291.7,295,291.7,295z M293,290.7
	C292.8,292,293,290.8,293,290.7 M300.7,301.7c-4.6-2.6-4.1,1.7-6.3-5C298,296.4,300.1,298.1,300.7,301.7 M313.3,290.3
	C305.2,298.4,299.9,280.8,313.3,290.3 M320,370.7c-5.4-0.3-7.8-2.3-7.3-6C316.4,365.1,318.8,367.1,320,370.7 M328,382
	c-4.1,0.4-8.9,3.2-14.7-1.7C318.4,379.4,323.3,380,328,382 M336,351.3c-1,2.3-3.3,3-6.3,3.3C329.3,350,334,349.3,336,351.3
	 M340.7,341.7c-3.7-1.7-8-2.7-11.3-4.7C330,335.3,340.7,337.3,340.7,341.7 M340.7,321c-3.3-0.3-3-4.3-6.3-4.7
	C336,312,341.3,317.3,340.7,321 M344,364.3C349.8,364.3,346,378.2,344,364.3 M352,260c1.6,1.2,5.3,2,5,5
	C352.1,267.5,345.5,258.9,352,260 M356.7,250.3C368.7,254.3,359.8,267.4,356.7,250.3 M358.3,225c0.7-3.1,1.7-2.3,3,2.3
	C359.1,227.5,357.3,227.1,358.3,225 M373.7,224.7c1.6,2.9,3.4,5.7,5.3,8.3C375.9,240.7,362.6,224.7,373.7,224.7 M382.3,216.7
	c3.1,3.9,6.2,7.8,9.3,11.7c-7.2-5.7-3.5,16.5-14-5C385.9,225.3,378.8,222.2,382.3,216.7C387.2,216.7,381.6,217.9,382.3,216.7z
	 M395.7,225C411.6,229.2,377.3,212.1,395.7,225 M389.7,217.3l0.3,0.3C389.9,217.6,389.8,217.4,389.7,217.3 M411.3,263.3
	c-3.8-5.1-5.7-6.5-7-13C407.9,253.4,411,258.5,411.3,263.3 M412.7,232.3c1.7,0.7,3.7-4,5,0C413.3,235.4,411.6,235.4,412.7,232.3
	 M417,228.7C414.8,230,415.2,229.7,417,228.7L417,228.7z M425.7,212c-3.1,1.3-4.5-4.3-4.7-6.3C424,206.6,425.6,208.8,425.7,212
	 M423.3,179.7c-3.7-3.7,7.8,6.1,11.5,10.2c8,1,7.3-2.2-1.9-9.6c10.5,6.8,16.5,16.5,18,29C438,203,428.8,193.1,423.3,179.7
	C421.1,177.4,428.6,186.3,423.3,179.7z M439.3,179.3c-3.8,1.8,0.6,4.3-5.3-1.7C435.8,178.2,437.6,178.8,439.3,179.3 M461,260
	c-0.7,4.3-5,0-3.3-3C459.3,257,458.7,260,461,260 M461,296.3c-2.2-0.7-4.1,2.1-3.3-4.7C458.8,293.2,459.9,294.8,461,296.3 M461,299
	C468.3,302.3,460.6,300.6,461,299 M475.3,297c-1.7-1.7-4.5,1.6-3.3-3.3C476.9,292.5,473.7,295.3,475.3,297z M465.3,380.7
	c3.1-1.6,4.5,3.4,3.3,7.3C464.4,387,463.3,384.6,465.3,380.7 M457.7,569.3c0-5.8,4.6-4.5,8-3.7C464.9,571.2,462.2,572.4,457.7,569.3
	 M440,648c-2.2-1.5-4.2-3.1-6-5C436.2,639.7,447.5,646.2,440,648 M422.3,556.7c0.1-1.8,21.1,6.3,22.3,6.7
	C445.4,564.9,426,560.9,422.3,556.7 M414.3,635.3c2.8-0.1,5.4-0.7,8-1.7C423,641.2,415.7,640.9,414.3,635.3 M412.7,611
	c7.7,0.7,9.7-0.3,11.3,8C421,615.7,412.3,618,412.7,611 M385.3,646.3c0,2.6,0.7,3.9-3,3C379.3,647.3,380.3,646.3,385.3,646.3
	 M388.7,609.7C389.9,615.5,384.6,609,388.7,609.7 M404.7,608c-0.6,1-12.3-2.1-14-2.3C392.6,598.9,402.1,607.5,404.7,608
	 M361.3,652.7c1.6-2.8,3.7-3.4,6.3-1.7C367.7,657,363.3,654.7,361.3,652.7z M358,609.3C353.4,604.3,358.6,607.6,358,609.3
	 M358.3,600c-5.4,0.6-9.4,2.2-13,0C350.4,595.3,354.2,597.7,358.3,600z M365,599.7C356.5,599.7,374,596.2,365,599.7 M366.7,607
	C364.6,607.5,371.5,604.6,366.7,607 M359.7,606C366,609.3,362.8,607.6,359.7,606C358.2,605.3,360.6,606.5,359.7,606z M361.7,613
	c3.3-3.3,4.4-2.7,4.3,0C364.9,616.3,362.6,612.9,361.7,613z M335.7,604.7C351.8,597.8,336.6,606.1,335.7,604.7
	C335.7,604.7,337.9,607.9,335.7,604.7z M328,667.3c6.3,4.7-4.5,6.3-6.3,6.3C323.7,671.5,325.8,669.4,328,667.3 M317.3,643.3
	c0.8-2.6,2.5-3,5.2-1.3C323.7,645,318.1,643.2,317.3,643.3z M308.7,640c-3.5,0.4,4.9-1.2,8.7-0.3C315.8,643.3,312.9,643.4,308.7,640
	 M281.3,649.7c-1.1,1.3-2.2,2.7-3.3,4C277.2,652,276.4,647.2,281.3,649.7 M270,641.7C270,637.7,281,641.7,270,641.7 M271.7,625.3
	c4.7-2.7,8.7-1.9,12,2.3C271.4,637.6,267.4,636.9,271.7,625.3C279.4,624.2,270.4,628.5,271.7,625.3z M281.3,596.7
	c-2.2,7.4-8.5,2.5-11.3,3C266.5,597.8,282.7,596.9,281.3,596.7 M267,588.7c-4.2-6.3,9.1-12.7,15.3-8
	C275.2,585.9,270.6,591.9,267,588.7 M239.7,608c0.9-7,1.7-9.7,11.3-6.7C248.7,605.3,244.3,606.6,239.7,608z M230,607.7
	c-1.9,0.8-3.8,1.6-5.7,2.3C230.8,600.2,229.5,607.4,230,607.7z M222.3,615.7C253.4,595.8,213.3,633.4,222.3,615.7
	C225.8,613.5,221.1,618.1,222.3,615.7z M225,590.3c5.7,5.7-8.8,3.6-7.7,0C219.3,590.3,222.9,590.8,225,590.3z M259,566.3
	c3.8-0.7,3.7-4,5.7,0C264,566.4,259.3,567.3,259,566.3 M257.3,588.7c-0.3,0.9,1.6-8,8.3,2C261.6,592.1,260.9,587.2,257.3,588.7
	 M263,603.3C264.7,606,263,605.3,263,603.3 M246,590.3C259,593.8,252.7,593.7,246,590.3 M241.3,595
	C241.3,592.8,255.2,594.2,241.3,595C241.3,594.4,243.3,594.9,241.3,595z M228.7,593.7c3.1,0.2,6.2,0.1,9.3-0.3
	C237,593.8,224.6,597.7,228.7,593.7 M238,583.7c1,1.5,1.7,6.1-4.3,6.1C216.1,589.6,240.5,585.2,238,583.7 M239.7,569.7
	c-0.7,3.5-2.8,4.5-6.3,3C233.3,568.1,237.3,570.7,239.7,569.7z M241,587C241,574.8,245.6,596.2,241,587 M252.7,595
	C250.9,593.2,251.9,594.3,252.7,595C252.3,594.7,252.7,595,252.7,595z M249.3,572.7c0.4-0.8,2.7,5.5-5,4.7
	C245.7,575.4,247.3,573.9,249.3,572.7 M250.7,601c0.3,0,0.3-0.3,0.7-0.3C251.1,600.8,250.9,600.9,250.7,601 M254.7,605.3
	C249.6,604,276.2,599.5,254.7,605.3C253.5,605,257.1,604.7,254.7,605.3z M266,564.7c-1.3-1.3,3.3-2.3,4.3-3
	C271.3,564.5,269.9,565.5,266,564.7 M255.3,514.3c2.5,10.8-4.8,13-21.7,6.7C240.9,518.8,248.1,516.6,255.3,514.3 M243.3,504.7
	c6.2,0.7,12.4,1.3,18.7,2c-5.9,9.4-35.1,19.7-43.7,8C227,512.1,235.3,508.7,243.3,504.7 M226.7,488c7.6-0.8,15.1-1.6,22.7-2.3
	c-1.4,1.6-3.1,2.3-5.3,2c5.7,1,11.3,2.2,16.8,3.7C261.8,492.2,237.6,500.5,226.7,488C234.9,487.6,233,495.2,226.7,488z M250.3,477.3
	c4.6,2.3-12.1,7.3-17.3,2C237.1,477.3,245.1,475.6,250.3,477.3 M263.7,499c0.3-0.6-5.1,1.2-5.7,1.7
	C259.8,496.1,259.9,493.3,263.7,499 M281.3,512.7c-1.5,1.5-4.4,2-6.3,1.7C284.3,495.8,279.8,513.1,281.3,512.7z M294,494
	c-1.5,10.4-27,4.7-28.7-3.3C274.9,491.8,284.4,492.9,294,494 M302,454.7c-1.9,3.9-1.5,0.8-7,3C295,452.6,301.5,454.8,302,454.7
	 M296.3,463.3L296.3,463.3L296.3,463.3L296.3,463.3 M302,463.7c-12.7,2.5,4.8-2,12.7,0C310.4,467.8,306.1,467.8,302,463.7
	 M313.3,425.3c1.9,0.7,3.4,1.8,4.7,3.3C314.9,430.6,313.3,429.5,313.3,425.3 M366.3,349.7c-4.7,3.7-9.3-6.7-16-6.3
	C355.7,339,362.7,347,366.3,349.7 M358.3,268c6.6,1.6-0.4,3.6-1.7,3.3C355.6,269.2,356.4,269,358.3,268 M364.7,297
	c-6-0.9-9.8-4.6-11.3-11.3C360.3,286.8,364.1,290.6,364.7,297 M379.3,260C369.4,276.6,378.5,260.1,379.3,260
	C377.1,263.7,377.5,260.3,379.3,260z M384,268c0.1,0.3-3.7-2.9-2.7-6C381.1,261.8,390.1,272.3,384,268 M387,240.7
	c-0.3-3,2-3.3,1.7-6.3C391.7,233.7,391.7,243.3,387,240.7 M384.3,531.3c3,1.5,4.7-2.2,4.7,4.7C381.2,536.8,387.7,533,384.3,531.3z
	 M332.3,596.7c0.9,0,1.4-2.2,4,0C333.8,600,332.5,600,332.3,596.7z M330.7,596C333,597.1,330,595.3,330.7,596 M337.3,587
	C333.7,592.3,330,582.7,337.3,587 M321.3,600C314.9,589.2,340.9,597.9,321.3,600 M295,582.3c0.8-0.6-7.6,2.5-11.7,3
	C286,577.3,288.6,583.3,295,582.3 M329.7,521.3c16,15.3,8.2,20.2-23.3,14.7C313.4,530.1,321.2,525.2,329.7,521.3 M328,487.7
	c-2.5-3.6-1.9-4.7,1.9-3.2C332.7,489.6,332.1,490.7,328,487.7 M320,425.3c3.2,1.4,9.1,1.2,12,3.9C328,425.5,316.6,431.7,320,425.3z
	 M344,409c-0.4,0.4-18.2,14.1-20.3,3.7C330.9,409.8,337.1,409,344,409 M344.3,396c-2.2,7.9-12.6,2.4-18.7-3.7
	C332.2,392,338.4,393.2,344.3,396 M352,409c-1.9,2.3-4.2,3.4-6.7,3.3C346.4,409.7,348.6,408.6,352,409 M355,357.7
	c2.3-4.3,7,2.7,9.7,3.3C363.3,364.3,358,358,355,357.7 M366.3,393C359.9,386.6,371.6,399.2,366.3,393 M369.7,414
	c3.4-0.5,6.7-1.6,9.7-3.3C380.1,422.9,375.4,415.6,369.7,414z M376,311.3C367.4,315.1,372.3,307.7,376,311.3 M379.3,284.3
	c4.2,4.2-6.5-3.2-6.3-3C373,281.5,386.3,285.2,379.3,284.3 M385.7,317.7c-2.7-1.6-4.9-4.1-8-6C385.3,310,383.6,313.9,385.7,317.7z
	 M376,508.7C387.2,501.7,377,509,376,508.7 M349.3,551.7c4.1-1.4,8.1-2.1,12-1.7C355.8,557.3,353.4,553.8,349.3,551.7z M331.7,554.3
	c14.1-1.4,8,1.6-18.3,9C319.4,560.3,325.6,557.3,331.7,554.3 M342.3,551.7c-1.3,0.7-0.3,4.8-3.3,0.7
	C340.2,551.1,345.4,550.2,342.3,551.7z M336.3,540.7c12.2,0,9.3-7.1,19.3,5c-9.7,3.2-19.5,5.3-29.7,6.3
	C329.4,548.2,332.9,544.4,336.3,540.7 M339,518L339,518C367.2,518,325.6,522.9,339,518z M337.3,513.3c0,0-4.2,0-5,0
	C334,511.3,335.7,511.3,337.3,513.3 M348.3,422c-1.1,1,1.2,3.3-4.7,3.3C343.7,418,346.2,424,348.3,422z M359.7,417.3
	c-4.7,0-3.1-2.4-0.7-4.7C361.7,414,364.4,416.1,359.7,417.3 M377.7,457.3c2.3-4.7,7.3,1.3,6.3,4.7
	C378.7,463.3,381.7,456.7,377.7,457.3 M372.7,489.3c0.5-2.4,5-8.8,5-9.7C382.9,481.5,380.6,495.4,372.7,489.3 M340.7,489.3
	c5.6-11.2,23.9,2.6,19.8,7.3C351.6,502.4,345,499.9,340.7,489.3 M340,515.3C337.7,515.8,337.6,515.9,340,515.3L340,515.3z
	 M334.3,468.3c4.2,1.9,3.7,2.1,6.3,8.7C336.6,477.4,329.2,473.4,334.3,468.3 M336,462c-4.4-0.6,1.2-4.9,4-4.7
	C340.4,459.8,339.1,461.3,336,462 M371,434.3C352.7,436.3,371,425.2,371,434.3 M373,438.7c8-1.9-0.7,4.9,9.3,5.7
	C377.7,445.4,374.6,443.5,373,438.7 M353.3,481c-1.4-4.2-3.4-6.5,2-8C358,477.8,354.3,478.8,353.3,481z M341.3,474.7
	C341.3,481.8,353.6,471.6,341.3,474.7 M341.3,469.7C338.8,471,339.1,470.9,341.3,469.7L341.3,469.7z M360.3,468.3
	c-1.1,1.1,0.3,4.7-2,4.7C356.9,470.1,356.8,464.8,360.3,468.3 M355.3,457.3c0.1-0.2,3.2,6.5-6.7,4
	C349.7,458.9,352,457.5,355.3,457.3 M347,465.3c9.5-0.4,10.2,1.7,2.1,6.2C340.2,468,339.5,466,347,465.3 M354,531
	C355.6,522.9,366.6,530.3,354,531 M356.7,501C365.1,498.2,348.8,500.1,356.7,501 M372.7,479.7c-3.2,7-8.1,7.9-14.7,2.7
	c3.3-0.4,6.2-1.7,8.7-4c0-3-10-2.9,2.3-18.3c4.4,0.6-2.5,2.4,6.3,3.3C375.8,469,374.9,474.4,372.7,479.7 M354.7,426.7
	c2.3-2.2,4.5-1.8,6.7,1.3C360.6,428,350.8,432.5,354.7,426.7z M342.7,460c0-7.8,19-9.6,19-14.3C364.9,447.8,345,459.1,342.7,460z
	 M347,527.7c3.8-0.9,4.7-5.8,4.7,3.7C350.1,530.1,348.6,528.9,347,527.7 M343,534.7C344.3,537.6,343.7,536.2,343,534.7L343,534.7z
	 M358.3,539c-9.9-13.2,13.9,2.3,15.3,3.3C368.3,542.6,363.2,541.5,358.3,539 M376.7,314.7c1.2,1.8,2.6,3.4,4,5
	C380.7,319.7,375.1,319.4,376.7,314.7 M381.3,291c3.6,2.6,3.9,4.4,0.9,5.4C379.4,294.7,377.7,291,381.3,291 M368,418.7
	C384.6,432.2,359.4,416.5,368,418.7 M355,418.7C355.8,422.9,343.1,418.7,355,418.7 M329.3,448c3.9-11.8,15-7.2,26-3.7
	C346.1,452.7,335.9,458.4,329.3,448z M326.7,443.3c-2.5,4.9-2-1.7-2.3-4C327.4,439.5,328.2,440.9,326.7,443.3 M339,417
	c-2,0.7-4,1.3-6,2C334.5,418.5,337.5,417.8,339,417z M311,561.7L311,561.7h1C312,561.7,311.7,562,311,561.7
	C311.3,561.7,311.3,561.7,311,561.7 M309,560.3C312.1,563.9,309.1,560.6,309,560.3 M329.3,571c-3.3-8.4-10.1-8.9-20.3-1.7
	c5.8-7.8,29.9-13.6,39.3-13C343.9,563.5,337.5,568.4,329.3,571 M326.3,592C326,592.3,325,593.3,326.3,592 M325,586
	C324.6,586,324.6,586,325,586 M319.3,585.3c-4.4,0,5-3.7,5,0.3C322.4,586.3,322,585.3,319.3,585.3 M313.3,599
	c-4.6,2.6-9.5,3.9-14.7,4C323.3,589.1,328.2,587.7,313.3,599 M294,609.3c-0.8,2.7-2.9,2.8-6.3,0.3C289.3,606,291.4,605.9,294,609.3
	 M297.3,598.3C294,601.6,287.2,596.9,297.3,598.3 M299.7,556.3c-2.2,0,3.7,4.6-4.7-1C295.7,553.3,305.3,550.7,299.7,556.3 M304,566
	c0.2-0.7-3.7-5.1,5-5C309,563.8,307.4,565.5,304,566 M300,561.3C296,569.4,296.1,561,300,561.3 M311.7,592c4,0,0.8,1.6-9.7,5
	C304.5,594.7,309.2,594.1,311.7,592 M297.7,598.3C298.6,597,298.6,597,297.7,598.3 M302,597C293,597,302,595.6,302,597 M318.3,575.3
	c5.8,7.7-10.7,2.8-20.7,2.3C303.7,570.6,310.6,569.8,318.3,575.3 M315,611c-1.3,3.3-11.1,4.1-17.7,1.7
	C313.6,592.5,313.9,607.4,315,611 M372.7,555c-13.5,2.3-14.9,1-4.4-4.1C378.9,551.9,380.3,553.3,372.7,555 M383.7,528
	c-0.5-0.4-3.3,0.1-4.7,0C376.8,514.9,388.3,531.2,383.7,528z M363,299C365.5,291.6,363,308.1,363,299 M359.3,300.3
	c0.5,0.3,8.1,4.6,7.3,4.3C366.4,308.6,357.5,300.3,359.3,300.3 M353,369c-1.9-2.2-1.2-2.9,2.1-2.1C358.2,368.9,357.5,369.6,353,369
	 M321.7,415.7c3.3,0.5,4.7,1.9,4.3,4.3C323.2,419.9,313.1,419.1,321.7,415.7 M317.7,482.7c5.4,2.7-38.7-11.8-6-6.3
	c-4,6.2,5.2,2.8,16.3,3.3C325.3,493.2,327.6,487.6,317.7,482.7 M300.7,542c8.3,7.9,24.9-4.7,33.7-6.3c-3.5,8.6-11.5,19.1-24,20.3
	c4.6-2.8,8.5-6.3,11.7-10.7c3.1,6.1-28.8,7.1-29.3,9C291.2,548,293.9,543.9,300.7,542 M279.7,589c2.1,0,4.5-0.7,6.7-0.7
	C284.4,591.2,282.2,591.4,279.7,589 M278,616c-1.4-1.6-4.2,1.4-3-3.3C279.6,611.6,276.4,614.2,278,616z M286,625.7
	c-18.7-7.7,21.4-1.8,21-1.7C300,624.6,293,625.1,286,625.7 M283,643.7C284.5,626.5,288.6,636.3,283,643.7 M276.3,636.7L276.3,636.7
	C285.3,639.8,279.9,642,276.3,636.7 M305.3,634c-1.7-0.3-19.4-3.7-3.3-5.3C310.1,626.8,311.3,628.5,305.3,634
	C306.2,634.1,306.8,632.2,305.3,634z M313.3,618c3-0.7,7.9-2,11.3-2C326.3,622,314.3,622.4,313.3,618 M328,654.3c4.3,3-5.3,5-8,6.3
	C318.7,655,326.7,658,328,654.3 M346.7,567c-3.8-1.3-14.7,13.9-17.7,6.7c2.1-1.1,50.8-24.1,48.7-12.3
	C367.7,565.1,357.3,567,346.7,567 M395.3,300c-1.7,4-7-1.3-6.3-4.7C394,294,391,300.7,395.3,300 M401,251.3
	C402.3,254.2,397.4,239.7,401,251.3 M399.7,234C397.1,227.9,400.7,231.9,399.7,234 M403.3,239c-1-1.6-2-3.1-3-4.7
	C402.6,234,403.6,235.6,403.3,239 M406.3,268c-1.4-3.5-7.4-8.6-10-11.7C401.9,258.5,408.6,261.3,406.3,268 M416,290.3
	c0,4.8-0.8,1.5-5-2.7C412.8,288.3,414.5,289.2,416,290.3 M409.7,354.7c8.8-5-30.3-35,16.3,0C420.6,358.4,415.1,358.4,409.7,354.7
	 M425.7,430c-3-0.7-3.5-1.7-1.4-3C430.6,426.2,426.6,429.5,425.7,430 M440,407.3c-2.9,0.5-4.4-1.3-4.7-5.3
	C439,401.4,440.6,403.1,440,407.3 M437,314.7c-0.7-1.3-1.3-2.3-1.7-4.7C435,306.7,441.3,325.7,437,314.7 M440,369
	c-2.7-1.7-3.7-4.3-1.7-6.3C442.3,363,442,367,440,369 M443,229c-2.9,2.4-4.4,0-4.3-7.3C443.2,223.4,441.8,226.3,443,229z
	 M445.3,229.7C436.4,226.7,456.3,229.7,445.3,229.7 M451.3,248.3c-2.6-6.5-3.8-14.3-3-20.7C451.6,234.2,452.6,241.1,451.3,248.3
	 M456,189.3c-2.8,5.3-6.3-4.8-6.3-5.7C454.7,184.4,451.4,187,456,189.3 M457.7,308c-0.7,4.3-5,0-3.3-3.3
	C456.3,305.3,455.7,308,457.7,308 M465.3,378.3c-2.9,2.9-5-6.5-4.7-7.7C466.3,369,462.9,376.6,465.3,378.3 M430.3,555
	c-0.3-3.2,0.7-2.4,3,2.3C431.4,557.3,429.9,554.6,430.3,555z M424,532.7C431,529.2,432.9,536.7,424,532.7 M412.7,596.7
	c4.7-2.3,4.7,7.3,0,4.7V596.7z M406.3,547C418.2,539.5,406.6,557.5,406.3,547 M400,518c2,1,4.3-2.5,3,3.3
	C401.1,521.6,396.4,519.5,400,518z M395.3,441.3c2.3-2.6,4,10,5.7,13C395.7,451.6,393.8,447.3,395.3,441.3 M390.3,324
	C395.9,318,389.3,323.3,390.3,324 M395.3,361c-1.9,1.2-2.5-0.3-1.7-4.7C400.7,357,395.6,358.7,395.3,361 M404.7,293.7
	C401,298.7,398.3,288,404.7,293.7 M404.7,303.3c2-4,9,0.3,9.7,3.3C418.7,309,407.7,303.7,404.7,303.3 M403.3,329c3.7-6,2,2,0,1.7
	C400.7,330,403,329,403.3,329 M403.3,361c1-4.7,2.3,2.7,4.7,1.7C406.3,368,405,360.7,403.3,361 M408,382c1.7,1.7,6,0.7,5,4.7
	C408.7,387.7,407,386,408,382 M407.7,433.3C400.3,433.3,420.7,436.8,407.7,433.3 M420.3,452.7c-11,13.8-20.8-0.9-5.7-10
	C419.2,443.8,420.8,447.9,420.3,452.7z M425.7,465c-4.1-1.7-8.2-3.3-12.3-5C422.2,455.1,422.3,455.5,425.7,465 M429,431.7
	c2,0.6,4,1.1,6,1.7C435,442.6,420.2,436.1,429,431.7 M442.3,498.7c-4-3.3-8-6.7-12-10C435.7,486,447.4,498.4,442.3,498.7
	 M425.3,469.7c11.1,5.4,12.1,10.8,3,16.3c-5.7-2.7-6.8-6.7-3.3-12c1,1.9-24.8,2.8-18-7C413.1,462.6,419.2,463.4,425.3,469.7
	 M437,452.3C429.5,469,430.3,451.2,437,452.3C437,452.3,435.9,452.2,437,452.3z M434,442C455.4,435.2,428.6,463.4,434,442
	 M425.7,440.7c3.2-0.2,4.2,1,3,3.7C424.2,445.1,426.8,443,425.7,440.7z M411.3,439c0,1.9-1.9,5.7-6.3,9
	C405,444.2,407,436.1,411.3,439 M396.7,402.7c1.7,1.7,4.5-1.6,3.3,3.3C395.1,407.2,398.3,404.3,396.7,402.7z M396.7,365.7
	c0,0.1,3.1,11.2,3,11C395.4,374,394.4,370.3,396.7,365.7 M404.7,471.7c2,3.4,6.8,4.7-3.7,10.7C400.6,478.2,401.8,474.7,404.7,471.7
	 M430.3,510.3c2.1,0.4,4.2,0.9,6.3,1.3C434,512.4,431.1,510.6,430.3,510.3z M418,515C418,510.3,414.8,518.7,418,515 M408,516.3
	c1.4-0.6,1.7-4.6,5.7-2C409.2,521,412.9,514.1,408,516.3z M441.7,508.7c-19.5-4.4-24.1-6.4-43.7,6.7c-0.3-13.6,3.8-25.7,12.3-36.1
	C410.9,479,440.3,507.6,441.7,508.7 M448,476.3c8.9-3,3.9,5.2,9.3,11.3C452.4,485.6,449.3,481.8,448,476.3 M449.7,535.7
	C456.1,533.5,455.3,548.4,449.7,535.7 M458,547C452.7,530.9,461.2,546.5,458,547 M449.7,450.7c1.6,7,3.1,14,4.7,21
	C427,465.2,449.2,451.9,449.7,450.7 M449.7,253.3c0,0.8,2.5,0.8,1.7,3.7C445.9,256.7,449.8,255.2,449.7,253.3z M449,250.7
	C451.9,251.6,451.4,251.5,449,250.7L449,250.7z M448,428.3c-5.6-3.3-11.1-6.7-16.7-10C435.9,416.1,449.1,420.5,448,428.3
	 M437.7,410.3C440.2,409.1,439.8,408.3,437.7,410.3C438.3,410,437.7,410.3,437.7,410.3z M430.3,412.3
	C435.8,406.8,434,411.7,430.3,412.3 M416,341.7c-2,0.3-2.6,2.9-6.3-0.3C411.7,340.1,413.9,340.2,416,341.7 M416,292L416,292L416,292
	z M417.7,324c1.3-5.3,3.7-1.3,6.3,0C423.7,328.3,421.3,322,417.7,324 M418,344c0.6,1.1,3.3,4.5,4.7,5.7
	C419.9,347.8,414.7,346.2,418,344 M421.7,351.3C421.7,350.7,423.6,350.2,421.7,351.3C421.7,351,421.7,351.3,421.7,351.3z
	 M401.7,341.7c-3.7-0.3-3.7-5-6.3-6.3C396,332.7,403.7,336.3,401.7,341.7 M401.7,532.7C399.5,541.3,410.3,531.9,401.7,532.7
	 M406.3,592c0.3-0.3,3.3-3,4.7-1.7C412.3,591.3,405,594.7,406.3,592 M414.3,542.3c0,3,6.9-17.8,7.8-3
	C422.4,542.8,418.2,544.1,414.3,542.3 M429,526.3c-4.2,2.6-50.9,5.3,8.3-11.3C435.4,519.4,432.7,523.2,429,526.3 M446.3,561.3
	c-2.1-4.8-4.2-9.6-6.3-14.3C473.3,539.2,446.3,557.2,446.3,561.3 M457.7,561.3c-2.1-0.3-4.2-0.8-6.3-1.3
	C457.6,546.1,464.1,557.1,457.7,561.3 M470.7,367.3C459.1,353.8,472.3,359.1,470.7,367.3 M429,410.7c0.3-0.1,2.9-6.1,3.3-7
	C438.8,411,432.1,407.5,429,410.7z M424,303.3c-2.8-0.8-3.1-7.7-3-9.7C421.7,297,422.7,300.2,424,303.3 M421,239
	C410.6,232.8,425.9,232.1,421,239 M366.3,229.7C366.3,225.1,375.3,238.6,366.3,229.7C366.3,229,366.3,229.7,366.3,229.7z M361,242.3
	c-1.3-4.2-2.2-8.6-2.7-13C375.4,235.3,378.8,252.3,361,242.3C361.8,249.7,363.5,243.7,361,242.3z M332.7,388.3
	c8.6,1.7,11.5-3.5,17.7,4.7c-6.7-2.2-20.2-6.7-27.3-6.7C324.5,386.3,334.1,382.7,332.7,388.3 M335.7,372.3c-1.8-0.3-3.6-0.6-5.3-0.8
	C332.2,356.3,338.5,374.5,335.7,372.3z M345.7,371.7C344.1,375.4,344.6,371.7,345.7,371.7 M344,373.7c-1.5,1.9-3.2,2.1-5,0.3
	C341.6,370.5,341.4,373.7,344,373.7z M308.7,407.3c0.7,0.9,1.7-12.2,1.7-13.7c10-0.7,18.6,2.4,26,9.3
	C332.2,405.2,313.1,407.3,308.7,407.3 M292.7,406c1.5-6.2,11.4,2.7,13.3,4.7C301.2,411.4,295.6,410.2,292.7,406 M298.7,433.7
	c-4.7,0.3-8.9,3.1-12.7-0.7C288.6,430.5,297.4,427.1,298.7,433.7 M289.3,418.7C296.1,422.6,291.8,424.5,289.3,418.7
	C290.9,419.6,288.4,416.5,289.3,418.7z M275,406c4.9,2.4,7.8,2.4,9.7,7C277.9,412.9,278.9,409.2,275,406z M272.7,410.3
	c-1.3,0-3.1-2.7,0.7-2.7C278.6,412.5,273.2,409.3,272.7,410.3z M271.7,401c-1.1,0.6-2.4,4.2-6.7,3.3
	C265.7,400.6,267.9,399.5,271.7,401 M263.7,325.3c5.3,4.3,1.5-5.7,3.3,5.3C263.2,329.5,262.2,324.1,263.7,325.3z M280,339
	C261.8,332.9,288.7,343.3,280,339C277.7,338.2,271.9,334.9,280,339z M310.3,362.7C302.4,366.4,308.6,360.3,310.3,362.7 M310.3,309.7
	C306.3,315,302.7,305.3,310.3,309.7 M310.3,346.7c-3.3-1.6-4.3-4.3-3-8C316.1,345.2,308.4,338,310.3,346.7 M312.7,380.7
	C307.3,378,312.1,380.3,312.7,380.7C312,380.3,312.7,380.7,312.7,380.7z M308.7,388.3C309.8,383.9,321.4,391.2,308.7,388.3
	C308.9,387.4,306.9,387.9,308.7,388.3z M305.3,393c-0.3,2.1,4,4.7-3.3,4.7C300.6,394.5,301.7,393,305.3,393 M297.3,401
	C311.3,401,294.7,403.7,297.3,401 M308.3,379.7C309.1,395.7,292.5,366.5,308.3,379.7 M281.3,367.3c1.9,1.2,3.4,1.1,6,2.3
	C286.1,373.8,278.8,367.5,281.3,367.3 M291,382C284.6,382,301,373.8,291,382 M281,361c2.9,2.9,6.5,4,8.7,7.3
	C288,367.5,277.9,364.1,281,361 M273.3,351.3c-0.6-8.4,6.1,0.5,9.7,3.7C276.9,365,273.7,363.8,273.3,351.3 M280.3,347.7
	c-3.7,0-2.3-1.9-0.7-3C284.1,347.7,284.3,348.7,280.3,347.7z M271.7,340C281.2,351.8,271.3,341.8,271.7,340 M271.3,327
	c4.4,0,6.7-1.2,6.7,5C275,332,269.1,330.4,271.3,327 M283,386.7c6-0.3,11.4,1.3,16.3,4.7C289.4,394.6,290.5,403.3,283,386.7
	 M294,399.7c-2,2.5,3.3-15,6.7-1.3C298.2,399.2,295.8,399,294,399.7z M292.3,357.7c4.9,3.8,9.8,7.6,14.7,11.3
	C306,377.1,266.1,353.6,292.3,357.7C298.3,360.6,289.7,357.3,292.3,357.7z M274.7,317.7c-1.2,1.1,2,3.7-6.3,3.7
	C269.3,318.2,271.4,317,274.7,317.7 M283.3,436.3c3.1,1.9,1.5,2.3-5,1C280,437,281.7,436.7,283.3,436.3 M294.3,463.3
	c-2.3,14.1-21.5-2.2-0.3-0.3L294.3,463.3z M252.3,471.7c8.2,0,12,5.4,21,6.3C269.5,483.5,245.5,476.8,252.3,471.7 M230,481.3
	C239.7,491,204,476.9,230,481.3 M215.7,487.7c-0.3-0.1,4.4-1.7,5,2.7C219.3,490.3,211.1,489.3,215.7,487.7 M204.7,529
	c-9.4-0.8-12.1-5.5-8.1-14.1c20-2.9,70.6,9.4,78.8,12.1c4.3-6.1,9.9-10.6,17-13.3c-1.2,3.8-1.9,7.7-2.3,11.7c8.8-5.6,30.6-32,38-5.3
	c-7.7,9.7-64.4,31.7-47,33.7c-8.5,10.6-25.4,6.7-30.3,13.7c-2.5-1.9-4-4.3-4.7-7.3C246.3,560.2,167.4,547.6,204.7,529 M255.7,608
	C276.3,600.5,262,616.2,255.7,608 M297.3,652.7c-5.4,0.9-10.9,1.8-16.3,2.7C300.3,636,311.2,654.9,297.3,652.7 M299,660.7
	C300.8,655.7,299.1,660.6,299,660.7 M335.3,614C321,607.8,338,605.1,335.3,614 M345.3,625.7c4-3,10.7-3.3,17.7-3.3
	C359.3,630,353.3,626,345.3,625.7 M364.7,665.7c-5.4,2.7,1-5.8,3.3-7.3C367.8,660.7,364.7,664.1,364.7,665.7 M376,636.7
	C373.7,642.7,366.7,636,376,636.7 M369.7,614.3c3.3-7.8-1.9-4.3,6.3-6.3C374.9,611.1,372.8,613.2,369.7,614.3 M382.3,577.3
	c-13,8.8-25.5,8.1-37.3-2c10.9-5.5,40.7-18.2,51.7-5C394.9,574.8,387.6,575.5,382.3,577.3 M392,654.3c-2.5-2.5-2.7,0.7-2.7-4
	C402,652.9,389.9,652.2,392,654.3z M396,651c-10.7-7.6-7.3-12.5,10.3-14.7C405.4,643.3,402,648.2,396,651
	C391.5,650.4,397.4,651.2,396,651z M405.3,653c-4-4-1-5.1,5.3-6.3C408.6,648.6,406.8,650.7,405.3,653 M439.3,659
	C443,660.5,439.3,660.1,439.3,659 M453,584.3c-3.2,2.2-8.7,0.9-11.7-2C440.6,577.4,457.4,571.3,453,584.3 M471.3,412
	c-3-0.7-3.3-2.3-0.7-4.7C476.5,408.8,471.3,411.7,471.3,412z M470.7,357.7c-2.1-2-5.6-1.2-4.3-6.3
	C469.5,352.1,471,354.2,470.7,357.7 M467.3,284c0.3-2.7-2-3.3-1.3-6.3C466.7,279.3,474,284.7,467.3,284 M148.7,664.3
	c-5.8-16.4,22.4-16.4,33.3-13.7C178.8,660.3,157.1,662.6,148.7,664.3 M146,652C126.3,657.6,152.2,639.6,146,652 M174.3,647.7
	c-2.6,0.2-4.6,3.5-5.3-1C171.3,645.9,173.1,646.3,174.3,647.7 M244.3,309.7c1.1,0.7,4.7-8,3.4,2.3
	C246,314.7,244.9,313.9,244.3,309.7 M236,304.7c0.9,3.7,1.9,4.3-1,4C233.2,306,228.3,300.8,236,304.7 M239.3,303.3
	c0-2,3.4,0.8,3.7,1.3C241.3,306.5,239.3,307.4,239.3,303.3 M227.7,299.7C226.3,298,227.7,299.4,227.7,299.7 M220.7,297
	c-2.2-1.6-2-3.1-2-5C220.2,293.3,225.8,302.1,220.7,297 M308.3,255.3c-0.4,0.1,8.3,0.9,8.3,0.3C315.1,258.5,312.4,256.7,308.3,255.3
	 M352,232.7c-4.8-2.9-9.9-5-15.3-6.3C336.7,215.4,352.3,226.3,352,232.7z M352.7,229L352.7,229L352.7,229L352.7,229z M409.7,182.3
	C408.3,181.9,409,175.5,409.7,182.3C408.7,182,409.7,182.3,409.7,182.3z M743.7,339C747.8,345.2,737,341.2,743.7,339 M763,320.7
	c1.6,2.4,1.2,3.8-1.2,4.2C765.5,322.5,744.9,329.7,763,320.7 M803.3,389L803.3,389C803.3,389.4,803.3,389.4,803.3,389 M804.3,389
	C803.9,389,802.3,389,804.3,389 M894.7,569c-41.9-6-0.3-1.6-6.7-8c-2.1-4.1-29.3-0.3-34.3,1.3c3.2-2.7,5.6-5.9,7.3-9.7
	c0.8,0-22.7,21.2-22.7,15c-11.6,1.9,23.7-38.4,23-37.3c2.1-6.4-34.6,1.9,0.7-8.7c-12.1-6.5-23.1-14.5-33-24
	c19.2,10.5,14.3-13.3,12.7-16c5,2,14.7-0.2,14.7-6c-4.6-1.8-9-4.1-13-7c6,1.7,11.6,1,17-2c1.5-7.6-29.1-25.5-32.3-26.3
	c7.9-6.7,16.7-12,26.3-15.7c5.5,11.1-66.7-15-54.3-15c-1,4.6-0.3,9.1,2,13.3c-15.5-3.4-3.8,16.7-32.3,15.7c0.9-2.4,0-3.5-2.7-3.3
	c4.7-0.5,9.4-1.2,14-2c-3.8-0.5-7-2-9.7-4.7c0,0,21.3-13,22-15c0-2.1-20.8,2.8-25,0.7c3.4-7.4,51.9-23.1,53-19.7
	c-7.6-3.2-15.4-3.7-23.5-1.5c-1.9,0.1,17.8-9.1,15.2-5.2c-2.8,4.2-19.6-20.7-13-16.3c-5-2.5-17.8,6.4-25,3c7.1-3.4,6.6-4.5-1.3-3.3
	c-1.9,1.4,25.7-32.8,25.7-30.7c-5.2,10.4-29.2,8.5-33.3,25c3.2-6.4,8-7.5,14.3-3.3c-26.8,20.1-15.4-5.8-22.7,10
	c0.2-22.4-7.4-0.4-18-5.7c3.1-4.8,6.9-9,11.3-12.7c-6.6,2.4-12.6,1.4-18-3c1.7,0.3,37.5-12.5,36.3-17.3c-4.1-8.2-18.2,9.9-23.7-1
	c10.1-3.1,20.3-3.8,30.7-2c-5.9-3.3-5.8-5.9,0.3-7.7c-14.1,2.3-20.4-15.4-40.7,7c8.9-8.9,32.3-20.5,35.7-30.7
	c0.5-1.5-23.1,4.8-23.3,4.7c-8.3-7,10.4-6.6-2.3-10.3c1.8-2.4,4-4.3,6.7-5.7c0-2.9-10.5-4.7-17,0.7c14.9-14.9-13.7-16.5-20.7-13
	c6.7-5.9,6.7-10.6,0-14c13,9.9,9.5-9.5,5-14c-2.4,5.4-6.2,7.2-11.5,5.5c0.8-6.6,3.9-11.7,9.2-15.5c-6.1-2-19,3.5-30.2-3.9
	c-0.2-0.1-17.9-23.6-21.5-24.1c-1.8,11.4-8.4,15.7-20,12.7c0-13.7,6.6-5.1,8.4,2.4c1.2-5.3,2.7-10.6,4.6-15.8c-6.6,2.6-8.8,1-6.7-5
	c-2.6,3.8-3.8,8-3.3,12.7c-5.8-5.7-6.6-12.1-2.7-19c-6.7,5.1-7.4,11-2,17.7c-0.6-0.4-26.4-22.4-19.7-24.7c6,0-28.5,2.1-29.3,3.3
	c-3.3-2.6-1.8-5.7,4.3-9.3c-2.3-2.3-18.5,3.9-21.7,8c-0.4-5.6-1.5-11-3.3-16.3c-1.4,4.4-3.3,8.7-5.7,12.7c3.8-5-3.7-13.4-11-17
	c3.3,5,2.6,8.3-2,9.7c-3.3,7.4-28.6-16.7-32-16.7c1.2,6.1-1.2,7.2-7.3,3.3c7.9,11.8-3.6,5.8-3.3,5.7c-0.7,5.7,0.4,11.1,3.3,16
	c-4.3,1.9-7.6,0.9-10-3c5.8,1.8,0.6-18.5,0-18.7c2.4,0.5-23.5-0.1-11-6.3c-4.5,2.7-4.6,20.1-12,23c0-5.7-1.5-17.4-11.3-19
	c0.2,4.8,0.8,9.6,1.7,14.3c-6.2-9.9-9.3-8.2-9.3,5c-2.4-9.6-6.4-8.7-16.3-18.7c-1.1,4.9-1.8,9.9-2,15c-2.4-3.8-4.4-7.8-6-12
	c-7.6,10.6-31.2-1.5-30-2.7c-8.4,8.4,22.2,15.9-8.3,3.7c-4.1,20.3,14.8,5.7,20.3,15c-16.9,0.6-9.7,12.6-5.7,22
	c-2.1-1.9-29.9-29.5-28.7-30.7c10.2-3.4,33.5,45.1,26.7,50.7c-14.4-3.8-9.1-9.5-1.7-13c-4.5,8.9-24.4-27.7-22.3-27.7
	c0.5,0,12.7,37.8,12,40c-16.1-8.3-18.1-12.2-6-11.7c-4.2,8.5-23.9-26.8-20.7-30c1.9,7.3,3.2,14.8,4,22.3c-0.5-6.4-3.6-6.8-9.3-1.3
	c-0.2-3.2-7.8-16.5-11.7-12.7c8,18.3-1.4-7.4-5-0.3c3.6,5,7.5,9.8,11.7,14.3c-2.9-1-24.7-9.8-24.7-11c9.4,6,18.6,12.2,27.7,18.7
	c-4.6-4.6-11.9,4.3-14,10c-0.1-0.4-14.4-14.8-14.7-14.7c0.4-0.2-25.1,20.6-19.3,15.3c1.6,2.3,2.9,4.8,4,7.3c2-0.5,29.2,1,30.7,10
	c-9.8,7.1-14.6,6.1-14.4-3.1c-3,1.4-3.5,3.6-1.6,6.4c-7.4,1.2-10.1-1.5-8-8c-13.1,3.3-7,5.5-11.3,11.3c-3.8-7.9-9.6-13.7-17.3-17.7
	c-2.1,2.1,20.7,24.4,10,11c-2.4,1.2-5,1.7-7.7,1.7c-0.2-0.2,10.8,8,9.7,9.3c-7.7-0.9-15.3-1.1-23-0.3c0,3.7,37.3,17.5,39.3,27
	c-10.8-3.6-12-4.3-28.7-9.7c-0.2,2,1.3,8.2,3.3,9.3c-2-0.9-10.1-1.4-10-1.3c3.3,2.8,6.9,4.6,11,5.7c-7.3,14.6-16.2-4.3-23.3-4.3
	c-11.3,11.3,6.7,25.1,10.7,34c-1.2,0-34.3-12.5-23.3-18c-1.8,2.6-3.4,5.4-4.7,8.3c-1.6-2.8-3.4-5.4-5.3-8c-0.7,0.3-4.4,13.7-5,14.3
	c6.4,1.8-23-36.7-23-24.3c4.6,3.4,9.7,5.7,15.3,7c0-2.7-3.5,14-2.3,9.3c-3.9-1.6-40.1-24.1-44-16.3c-0.1,0.2,27.9,21.3,30.3,23.7
	c-6-0.3-11.5,1.3-16.3,4.7c14.4,6.4,20.7-0.1,32.7,20c-5.3-2.5-10.9-4.3-16.7-5.3c3.5-7,23.7,24.2,24.3,25.7
	c-4.6-0.7-8.7,1.2-12.1,5.7c7.5-6.2-14.7-0.7-10.6-9c3.7,4.7,6.5,9.8,8.7,15.3c-2.9-2.8-6.3-4.6-10.3-5.3c2.8,4.9,6.7,8.7,11.7,11.3
	c-8.7,0.1-49-21.3-39.3-21.3c0,0-22.7,16.9-22.7,4.3c3.3,2.9,7,4.5,11.3,4.7c-3.7-0.4-6.3,0.9-8,4c6.9,1.5,13.8,3.1,20.7,4.7
	c-5.1,0.6-9.6,2.6-13.3,6c16.5,16.5,33.7-9.4,33.7,13.3c3.2,0.7,6.3,1.7,9.3,3c-6.4,7.1-25.3-6.6-13,6.7c-1.5-0.3-13.2-7.7-10.3-7.7
	c-4.5,0,27.3,26.3,27.3,28c-1.3-0.6-9.7-4.5-9.7,3.3c7.1,1.8,7.5,20.1,27.7,13c-13.6,5.5,15.4,12.1,17,23.3c0,0-10.3-0.6-5,4.7
	c-38.6,0-52.5-78.3-72.7-78.3c2.1,2.1,12.1,28.9,17.7,36.3c-2.3-0.2-47.3-6.7-38-16c1.9,4.4,4.7,8.2,8.3,11.3
	c-4.5-1-8.7-0.5-12.7,1.7c3.7,2.1,7.6,2.6,11.7,1.7c-6.4,3.4-6.3,5.9,0.3,7.7c-2.9-2.2-6.1-3.1-9.7-2.7c-2,3.9,14.9,16.4,16.3,20.7
	c-5-0.5-30.2,31.5-34,24c9.6,1.2,18.4-1,26.3-6.7c-5.5,1.6-7.2-0.7-5.1-6.9c-9.2,7.5,25.3,7.6,34.1,14.2
	c17.4-11.6-38.1,8.4-35.7,15.7c9.3-0.9,18.5-2.9,27.3-6c-3.4,10.3-32.3,16.8-33,17c0.5-2.6-6.5-15.7-1-15.7
	c-5.5,0-35.1,11.8-36.3,14.8c-7.4,18.5,26.9,11.5,24.3,9.8c-5.6,4.4-11.7,7.8-18.3,10.3c6.5-26.2,71.8,38.7,33.7,26
	c-14.8-22.8-40.6-3.6-45,7.3c-3.1-1.6-6.2-1.7-9.3-0.3c-4.2,12.6,18.3,25.9,18.3,30c-3.3,0.1-6.3,1.1-9,3c2.8,2,5.7,2,8.7,0
	c-3.9,4.4-7.3,9-10.3,14c3,1,5.9,0.8,8.7-0.7c-2,2.9-4.3,5.5-7,7.7c-1.3-2.6,17.1,8.7,7.3,8.7c10.5,5.3,37.5-31.8,50.3-15
	c1.1-0.4-43.8,25.2-40,29c5.6,5.6,25.5-3.5,30.7-4.3c-3.2,2-5.4,4.8-6.7,8.3c5.9-3.9,11.8-7.8,17.7-11.7
	c0.2,5.5-19.4,18.1-19.7,17.7c7.6-0.5,15-2.3,22-5.3c0-1.3,6-14.1,15-15.3c6.2-0.9-20.6,22.1-39.1,24.8
	c-8.6,1.2-40.8-11.8-40.8-15.1c2.8,4.7,6.6,8.5,11.2,11.3c-6.9-1.1-13.5-0.1-19.7,3c2.6,7.9,26.3-4.7,31.3,5.3
	c-7.2-1.2-13.6,0.3-19.3,4.7c-4.3-8.5,19.6,17.3-6.3,17.3c8.1-5.5,16.6-10.2,25.7-14c0,25.1-23.7,5.8-30.7,19.7
	c-0.6,1.2,102.7-34.3,109.3-14.3c-3.2,1-53.2,8-48,15c4,0.8,7.7,0,11-2.3c-3.8,5-55.3,24.4-55.3,12c6.2,2.3,12.2,5,18,8
	c-5.4-1-10.9-1-16.3,0c0,6.9,36.6-3.1,39.3-3c-2.8,1.7-4.7,4.2-5.7,7.3c4.8,4.8,10.9-9.7,18-8.7c-1.7,3.9-0.5,4.9,3.3,3
	c-4.3,3-7.6,6.7-10,11.3c-2.5-5,102.7-40.8,88-27.7c0-10,22.6,6.6,23.8,8.2c-2.7-3.2-33.1,3.5-30.2,7.8c9.7-2,19.5-3,29.3-3
	c0.3-0.7-14,14.8-13,15.3c9.8,4.9,35.1-19.7,45.7-19.7c-4,2.2-7.4,5.2-10,9c3.1,6.3,29-19.6,30.3-20.3c-0.3,4.8,13,17.9,3.8,22.5
	c4.7-2.3,8.7-5.5,11.8-9.5c0.5,2.8,0.4,5.6-0.3,8.3c7.5-4.3,14.6-9.2,21.3-14.7c-8,18.6,8.2,1.4,9,1.7c-0.1-0.1-12.4,6.3-6.3,0.3
	c7.2-5.1,13.9-4.5,20,2c-6.1,3.2-11.8,6.9-17.3,11c-2-4.1,39.2-1.1,37.7-7.3c-4.6-1.6-8.8-4-12.7-7c-1.9-0.7,28.9,4,24.7,10.3
	c-4.5-27.4,9.2-5.5,14.3,4.7c0.5,0.9,14.4-13.4,19.3-17.3c59.1,70.9-61,61.3-70.7,92.7c16.9,0,16.2,6.3,15,6.7
	c2.2-0.6,23.1-22.7,26.7-15.7c-13.9,3.9-16.5,11-8,21.3c-1.7-2.5,22.1-26.8,25-27c-9.3,8.9-16.9,19-23,30.3
	c22-7.8,10.9-6.6,28.3-0.3c8-7.5-10.1-15.7,7.3-19.3c-12.7,5.7,18,17.6,18.7,17.3c-2.8-2.8-4.1-6.1-4-10c4,34.1,9.1,39.4,15.3,16
	c6.4,4.7,10.6,10.8,12.7,18.3c-5-9.9-6.9-20.3-5.7-31.3c-6.9,22.4,16.4,3.7,22,3c-3.6-2.3-4.4-5.3-2.7-9
	c0.5,8.1,17.7,52.7,17.7,14.3c-0.5,1.7-1.6,2.2-3.3,1.7c8.2-4.8,15.5-3.7,21.7,3.3c3.7-8.6,1.8-15.9-5.7-22
	c8.5-2.2,18.7,27.6,19.3,32c-3.1-9.6-3.8-19.4-2-29.3c-0.7,9.7,13.4,18.9,15.5,27.1c2.9-2,5.4-4.5,7.4-7.4
	c0.1-0.5-10.9-15.6-18.9-20.1c12.1-14.5,9.1,15.6,22.7,7.7c-4.8-35.7-7.1,4.8,11-9.7c-21.7-27.2-70-0.3-73-49
	c-1.8-29.4,13.3-25.6,29.3-31.3c10-3.6,60.1,12.8,69.3,6.7c-8.8,4.4,5.7-15.6,4.7-14.7c7.7,0,141.2,46.7,144.3,34
	c-1.8,7.2-30.3-16.9-30.7-17.7c5.2,0,24.7,6.3,25,6.7c-6.4-2.7-12.5-6-18.3-9.7c5.9-0.3,10.7-2.8,14.3-7.3
	c-4.3-8.6-18.8,13.4-23-7.3c24,4-7,1.9,16-5c-9.1-0.7-15-5.5-17.7-14.3c0.4,0,35.3,26.6,35.3,9c0-3.5-6-9.2-7.3-11.7
	c6.5-0.3,11.5,2.2,15,7.3c-3.3-5.7-7.2-10.9-11.7-15.7c1.9,1.5,31.9,12.7,24.1,0c0.7,6.8,1.7,13.6,2.9,20.3c1.2-4.5,2.1-9,2.7-13.7
	c2.6,4,5.2,8,7.7,12c-0.1-4-1.3-7.7-3.7-11c2.7,0.3,9.3,12,10,11.7c3.3,0,1.1-16.3,3.5-17.2c3,2.2,4.3,5.1,3.8,8.8
	c-0.1-6.8,2.3-7.3,7.3-1.7c-4-4-6.6-8.7-7.8-14.2c4.6,3.1,9.6,5.6,14.8,7.5c1.5-3-11.7-20.7-11.7-20.7c5.7,2,11.4,4.3,17,6.7
	c-0.3-4.4-2.3-7.8-6-10.3c5.3,4.1,10.6,8.1,16,12c0.5-5.5,2.2-10.7,5.3-15.3c-15.7-0.7-10.7-19.3-24.3-12.7c4.1,0.2,5.9,2.3,5.3,6.3
	c-68-44.4,0.4-22.9,2.3-15.7c-6.9,0.8-10.7-2.2-11.3-9c-4.1,0,15,25.3,20,15.3C876.4,591,833.1,569,894.7,569 M393.7,694.3
	c-2.1,0-4.9,5.2-2.7,6.7C393.6,702.3,396.9,694.3,393.7,694.3 M370,191C360.2,181.2,369.8,190.9,370,191 M318.3,217.7
	c7-6.8,10.9-5.8,11.7,3c-1.3-2.9-2.9-3.5-4.7-1.7C344.7,229.9,295.8,200.7,318.3,217.7C322,211.3,317.5,217,318.3,217.7z M442.7,698
	C448.8,695,438,700.4,442.7,698 M607.3,774c0-1.7,0-3.3-0.7-5L607.3,774z M565,787.3l0.7-10.3C564.7,780.3,565,783.7,565,787.3
	 M529.7,784c0-2-1.3-3.7-2-5.7L529.7,784z M523.3,801.7c-0.3-4.3-1.7-9.3-6.3-13L523.3,801.7z M471.3,768.7C471,771,472,773,473,775
	L471.3,768.7z M463.3,779.3c1,0.7,2,1.3,2.3,1.7L463.3,779.3z M468,768.7h3.3C470.3,768.7,469.7,768.7,468,768.7"/>
</svg>
