<?xml version="1.0" encoding="utf-8"?>
<svg version="1.1" id="Layer_1" xmlns="http://www.w3.org/2000/svg" xmlns:xlink="http://www.w3.org/1999/xlink" x="0px" y="0px"
	 viewBox="0 0 16 12.5" style="enable-background:new 0 0 16 12.5;" xml:space="preserve">
<style type="text/css">
	.st0{opacity:5.000000e-02;}
</style>
<path class="st0" d="M9,7V0h7v7.1c0,4.8-4.5,5.4-4.5,5.4l-0.6-1.4c0,0,2-0.3,2.4-1.9C13.7,8,12.9,7,12.9,7S9,7,9,7z"/>
<path class="st0" d="M0,7V0h7v7.1c0,4.8-4.5,5.4-4.5,5.4l-0.6-1.4c0,0,2-0.3,2.4-1.9C4.7,8,3.9,7,3.9,7S0,7,0,7z"/>
</svg>
