<?xml version="1.0" encoding="utf-8"?>
<!-- Generator: Adobe Illustrator 18.1.1, SVG Export Plug-In . SVG Version: 6.00 Build 0)  -->
<svg version="1.1" id="Laag_1" xmlns="http://www.w3.org/2000/svg" xmlns:xlink="http://www.w3.org/1999/xlink" x="0px" y="0px"
	 viewBox="0 0 1000 1000" enable-background="new 0 0 1000 1000" xml:space="preserve">
<path d="M300.7,502.7c-17,0-30.7,13.7-30.7,30.7c0,17,13.7,30.7,30.7,30.7s30.7-13.7,30.7-30.7C331.3,516.3,317.7,502.7,300.7,502.7
	z M679,502c-17,0-30.7,13.7-30.7,30.7c0,17,13.7,30.7,30.7,30.7s30.7-13.7,30.7-30.7C709.7,515.7,696,502,679,502z M305.3,442
	c-50.3,0-91.3,41-91.3,91.3c0,50.3,41,91.3,91.3,91.3s91.3-41,91.3-91.3C396.7,482.7,355.7,442,305.3,442z M305.3,596.7
	c-35,0-63.3-28.3-63.3-63.3s28.3-63.3,63.3-63.3s63.3,28.3,63.3,63.3S340.3,596.7,305.3,596.7z M873.3,348.3H747.7
	c-64-43-151.7-70-252-70s-194,27-258,70h-120c19.7,23,34,53.7,37.7,75c-22.7,31-36,69.3-36,110.3c0,104,84.3,188,188,188
	c59,0,111.7-27,146-69.7c14,16.3,37.3,49.3,42,59c0,0,27-40.3,42.3-59c34.3,42.3,87,69.3,146,69.3c104,0,188-84.3,188-188
	c0-41.3-13.3-79.3-36-110.3C839.3,402,853.7,371,873.3,348.3z M307.3,685C223.7,685,156,617.3,156,533.7s67.7-151.3,151.3-151.3
	S458.7,450,458.7,533.7C459,617.3,391,685,307.3,685z M307.7,345.7c53.7-23.3,120.7-36,188-36S624,322.3,678,346
	c-101,3-182.3,86-182.3,188C495.7,430,411.3,345.7,307.7,345.7z M683.7,685c-83.7,0-151.3-67.7-151.3-151.3S600,382.3,683.7,382.3
	S835,450,835,533.7S767.3,685,683.7,685z M683.7,441.7c-50.3,0-91.3,41-91.3,91.3c0,50.3,41,91.3,91.3,91.3s91.3-41,91.3-91.3
	C775,482.3,734,441.7,683.7,441.7z M683.7,596c-35,0-63.3-28.3-63.3-63.3s28.3-63.3,63.3-63.3s63.3,28.3,63.3,63.3
	S718.7,596,683.7,596z M915.7,378.7h-6v-25h9c4.3,0,10,0.7,10,7.3c0,3.3-1.3,5.7-5.3,6.7l6,11h-6.7l-5.3-10.3h-2v10.3H915.7z
	 M915.7,364.7c3.3,0,4,0,4.7-0.3c2-0.7,2-2,2-3.3c0-1.7-0.7-2.7-1.7-3c-1-0.3-1.7-0.3-5-0.3V364.7z M919.7,344.3
	c-12.7,0-22.7,10.3-22.7,22.7c0,12.7,10.3,22.7,22.7,22.7c12.7,0,22.7-10.3,22.7-22.7C942.3,354.7,932,344.3,919.7,344.3z
	 M919.7,385.7c-10.3,0-18.3-8.3-18.3-18.3c0-10.3,8.3-18.3,18.3-18.3c10.3,0,18.3,8.3,18.3,18.3S929.7,385.7,919.7,385.7z"/>
</svg>
