<?xml version="1.0" encoding="utf-8"?>
<svg version="1.1" id="Laag_1" xmlns="http://www.w3.org/2000/svg" xmlns:xlink="http://www.w3.org/1999/xlink" x="0px" y="0px"
	 viewBox="0 0 300 300" enable-background="new 0 0 300 300" xml:space="preserve">
<path fill="#010202" d="M176.8,257c21.4,0,42.6-7.6,49.7-16.9l1.4-1.9l-13.3-39.3c-0.1-0.4-0.5-0.6-0.8-0.6h-2.5h-1.1h-26
	c-0.4,0-0.8-0.3-0.9-0.6c-0.3-1.3-0.6-2.9-0.6-4.9v-48.1c0-0.5,0.4-0.9,0.9-0.9h34.9c0.5,0,0.9-0.4,0.9-0.9V93.7
	c0-0.5-0.4-0.9-0.9-0.9h-34.7c-0.5,0-0.9-0.4-0.9-0.9v-48c0-0.5-0.4-0.9-0.9-0.9h-27.2h-9.5H121c-4.4,0-9.4,3.2-10.1,9.2
	C107.8,77,96.5,91.8,75.1,99l-2.4,0.8c-0.4,0.1-0.6,0.5-0.6,0.8v42.3c0,0.5,0.4,0.9,0.9,0.9h16.6l0,0h5.2c0,0,0,39.5,0,52.1
	C94.8,237.4,123.6,257,176.8,257z M217.6,236.9c-6.7,6.4-20.4,11.2-33.5,11.4c-0.5,0-1,0-1.5,0h0c-43.2,0-54.8-33-54.8-52.5v-59.9
	c0-0.5-0.4-0.9-0.9-0.9H106c-0.5,0-0.9-0.4-0.9-0.9v-27.3c0-0.4,0.2-0.7,0.6-0.8c22.3-8.7,34.8-26,38.1-52.7
	c0.2-1.5,1.4-1.5,1.4-1.5h27.9c0.5,0,0.9,0.4,0.9,0.9v48c0,0.5,0.4,0.9,0.9,0.9h34.7c0.5,0,0.9,0.4,0.9,0.9v31.7
	c0,0.5-0.4,0.9-0.9,0.9h-34.9c-0.5,0-0.9,0.4-0.9,0.9v57c0.2,12.8,6.4,19.3,18.4,19.3c4.8,0,10.4-1.1,15.5-3.1
	c0.5-0.2,1,0.1,1.2,0.5l8.9,26.3C218,236.3,217.9,236.7,217.6,236.9z"/>
</svg>
