<?xml version="1.0" encoding="utf-8"?>
<svg version="1.1" xmlns="http://www.w3.org/2000/svg" xmlns:xlink="http://www.w3.org/1999/xlink" x="0px" y="0px"
	 viewBox="0 0 300 300" enable-background="new 0 0 300 300" xml:space="preserve">
<path id="Twitter" fill="#010202" d="M268.9,50c-10.2,6.1-21.1,10.9-33.4,12.9c-9.5-10.2-23.2-17-38.2-17
	c-28.6,0-52.5,23.9-52.5,53.8c0,4.1,0.7,8.2,1.4,12.3c-43.6-2-81.8-23.9-107.7-55.9c-4.8,8.2-6.8,17-6.8,27.3
	c0,18.4,9.5,34.8,23.2,45c-8.9,0-16.4-2.7-23.9-6.8v0.7c0,25.9,17.7,47.7,42.3,52.5c-4.1,1.4-8.9,2-13.6,2c-3.4,0-6.8,0-9.5-0.7
	c6.8,21.1,25.9,36.8,49.1,37.5c-17.7,14.3-40.2,23.2-64.7,23.2c-4.1,0-8.2,0-12.3-0.7c23.2,15,50.4,23.9,80.4,23.9
	c96.1,0,149.2-81.8,149.2-152.7c0-2,0-4.8,0-6.8c10.2-7.5,19.1-17,25.9-27.9c-9.5,4.1-19.8,7.5-30,8.2C256.7,73.2,264.8,63,268.9,50
	z"/>
</svg>
