<?xml version="1.0" encoding="utf-8"?>
<svg version="1.1" xmlns="http://www.w3.org/2000/svg" xmlns:xlink="http://www.w3.org/1999/xlink" x="0px" y="0px"
	 viewBox="0 0 300 300" enable-background="new 0 0 300 300" xml:space="preserve">
<path id="Vimeo" fill="#010202" d="M240.2,46.9c-35.3-1.4-58.8,18.7-72,58.8c6.2-2.8,12.5-4.2,18.7-4.2c13.2,0,18.7,6.9,17.3,21.5
	c-0.7,9-6.2,21.5-17.3,38.1c-10.4,16.6-18.7,24.9-24.2,24.9c-6.9,0-13.2-12.5-18.7-38.1c-2.1-7.6-5.5-26.3-10.4-57.4
	C128.8,62.1,117,49,96.9,50.4c-8.3,0.7-20.8,8.3-37.4,22.8c-12.5,11.1-24.2,21.5-36.7,32.5L34.7,121c11.1-7.6,18-11.8,20.1-11.8
	c9,0,16.6,13.8,24.2,40.8c6.9,24.9,13.8,49.8,20.8,74.1c10.4,27,22.8,40.1,37.4,40.1c24.2,0,53.3-22.1,87.9-66.4
	c33.2-42.2,50.5-75.4,51.9-100.4C279,64.9,266.5,48.3,240.2,46.9z"/>
</svg>
